<?xml version="1.0" encoding="UTF-8"?>
<svg width="160" height="48" viewBox="0 0 160 48" xmlns="http://www.w3.org/2000/svg">
    <rect width="160" height="48" rx="4" fill="#1976D2"/>
    <path d="M36 16C36 14.9 35.1 14 34 14H18C16.9 14 16 14.9 16 16V32C16 33.1 16.9 34 18 34H34C35.1 34 36 33.1 36 32V16ZM22.34 30H19.67V21.48H22.34V30ZM21 20.24C20.14 20.24 19.44 19.54 19.44 18.68C19.44 17.82 20.14 17.12 21 17.12C21.86 17.12 22.56 17.82 22.56 18.68C22.56 19.54 21.86 20.24 21 20.24ZM32.67 30H30V25.92C30 24.88 29.98 23.56 28.61 23.56C27.22 23.56 27.01 24.68 27.01 25.84V30H24.34V21.48H26.91V22.72H26.95C27.31 22.04 28.14 21.32 29.39 21.32C31.98 21.32 32.67 22.96 32.67 25.36V30Z" fill="white"/>
    <text x="50" y="30" font-family="Helvetica Neue, Helvetica, Arial, sans-serif" font-size="16" font-weight="bold" fill="white">LinkedIn</text>
</svg>
