<?xml version="1.0" encoding="UTF-8" standalone="no"?>
<svg
   width="53.458889mm"
   height="33.354948mm"
   viewBox="0 0 53.458889 33.354948"
   version="1.1"
   xmlns="http://www.w3.org/2000/svg"
   xmlns:svg="http://www.w3.org/2000/svg">
    <style>
      path {
        fill: black;
      }
      @media (prefers-color-scheme: dark) {
        path { fill: white; }
      }
    </style>
    <g transform="translate(0, 9)">
      <path
         d="M 6.00809 12.6049 C 5.79587 12.7464 5.71548 12.8911 5.76693 13.039 C 5.82481 13.1805 5.96307 13.2994 6.18172 13.3959 C 6.4068 13.4924 6.64474 13.5406 6.89555 13.5406 C 7.14635 13.5339 7.34249 13.4664 7.48397 13.338 C 7.83124 13.0229 8.28461 12.4666 8.8441 11.6692 C 9.41001 10.8718 9.97914 9.96504 10.5515 8.94897 C 11.1303 7.92646 11.6222 6.90396 12.0274 5.88145 C 12.4389 4.85251 12.6769 3.94897 12.7412 3.17084 C 12.8312 2.07759 12.5643 1.25766 11.9406 0.71104 C 11.3232 0.16442 10.3682 -0.06709 9.07561 0.01651 C 8.17529 0.0743767 7.21387 0.315533 6.19137 0.73998 C 5.17529 1.16441 4.21709 1.70782 3.31677 2.3702 C 2.41645 3.02615 1.67047 3.73676 1.07883 4.50203 C 0.487195 5.2673 0.139929 6.00364 0.037035 6.71103 C -0.0465663 7.28981 0.0113113 7.83322 0.210668 8.34125 C 0.410025 8.84286 0.728352 9.21906 1.16565 9.46987 C 1.60295 9.72068 2.11742 9.77212 2.70906 9.62421 C 2.95986 9.56634 3.0724 9.48274 3.04668 9.37341 C 3.02096 9.26408 2.89556 9.17727 2.67047 9.11296 C 1.64797 8.82357 1.15279 8.32839 1.18494 7.62743 C 1.2171 6.92004 1.62546 6.1419 2.41002 5.29303 C 3.19459 4.43772 4.156 3.65316 5.29426 2.93933 C 6.43253 2.21908 7.49683 1.71747 8.48718 1.43451 C 9.51612 1.14512 10.2685 1.08725 10.7444 1.26088 C 11.2203 1.42808 11.4647 1.78821 11.4775 2.34126 C 11.4968 2.88789 11.3618 3.54705 11.0724 4.31875 C 10.7637 5.15476 10.3907 6.00685 9.95342 6.87502 C 9.52255 7.73675 9.06275 8.56633 8.574 9.36376 C 8.08526 10.1612 7.61259 10.8493 7.156 11.4281 C 6.70584 12.0004 6.3232 12.3927 6.00809 12.6049 Z M 14.9116 10.2126 C 14.7959 10.7142 14.8602 11.0969 15.1045 11.3605 C 15.3489 11.6178 15.6672 11.7271 16.0595 11.6885 C 16.4518 11.6499 16.7991 11.4763 17.1013 11.1676 C 17.5 10.756 17.8505 10.2898 18.1528 9.76891 C 18.455 9.24158 18.6865 8.78498 18.8473 8.39913 C 18.8987 8.27052 18.8987 8.17084 18.8473 8.1001 C 18.8023 8.02936 18.7315 8.00686 18.6351 8.0326 C 18.545 8.05187 18.4743 8.11296 18.4229 8.21588 C 18.2299 8.62103 17.9277 9.08083 17.5161 9.5953 C 17.111 10.1033 16.7669 10.4442 16.484 10.6178 C 16.2396 10.7657 16.1335 10.7046 16.1656 10.4345 C 16.1978 10.2223 16.3425 9.7625 16.5997 9.05511 C 16.7541 8.63067 16.8505 8.34771 16.8891 8.20624 C 16.9856 7.82682 16.9373 7.50206 16.7444 7.23196 C 16.5579 6.95543 16.2942 6.79788 15.9534 6.75929 C 15.6126 6.71429 15.291 6.81397 14.9888 7.05833 C 14.7766 7.22553 14.574 7.43132 14.3811 7.67569 C 14.1881 7.91363 13.9727 8.20623 13.7348 8.5535 C 13.4904 8.90077 13.3264 9.11299 13.2428 9.19016 C 13.5 8.80431 13.7605 8.34128 14.0242 7.80109 C 14.1078 7.62103 14.1142 7.42489 14.0434 7.21267 C 13.9727 6.99402 13.8569 6.80752 13.6962 6.65318 C 13.5418 6.49241 13.3907 6.4056 13.2428 6.39273 C 13.0949 6.37986 12.992 6.46347 12.9341 6.64354 C 12.7669 7.17087 12.5901 7.66283 12.4036 8.11942 C 12.2171 8.56958 11.9856 9.09369 11.709 9.69176 C 11.484 10.1805 11.32 10.5439 11.2171 10.7818 C 11.1656 10.904 11.201 11.0455 11.3232 11.2062 C 11.4454 11.367 11.5965 11.4828 11.7766 11.5535 C 11.9566 11.6178 12.0981 11.5985 12.201 11.4956 C 12.3746 11.322 12.8023 10.8075 13.484 9.95219 C 13.9663 9.35412 14.3489 8.88467 14.6319 8.54384 C 14.9213 8.203 15.1367 7.97792 15.2782 7.8686 C 15.4582 7.72712 15.5579 7.71425 15.5772 7.83 C 15.6029 7.94575 15.5901 8.09688 15.5386 8.28338 C 15.5129 8.36055 15.455 8.52453 15.365 8.77534 C 15.127 9.46344 14.9759 9.94254 14.9116 10.2126 Z M 21.8955 7.79142 C 21.0209 8.99399 20.1463 9.93289 19.2717 10.6081 C 18.7959 10.949 18.5868 10.9586 18.6447 10.637 C 18.7026 10.3219 18.8955 9.88462 19.2235 9.32514 C 19.5836 8.72707 19.8441 8.34764 20.0049 8.18687 C 20.127 8.05826 20.1785 7.80424 20.1592 7.42482 C 20.1399 7.05183 20.0434 6.78173 19.8698 6.61453 C 19.6962 6.46019 19.4711 6.54701 19.1946 6.87498 C 18.828 7.31228 18.4325 7.9618 18.0081 8.82353 C 17.5836 9.6724 17.4004 10.3316 17.4582 10.801 C 17.5418 11.3283 17.8248 11.6499 18.3071 11.7656 C 18.7959 11.8814 19.3103 11.711 19.8505 11.2544 C 20.1913 10.9457 20.5386 10.5695 20.8923 10.1258 L 20.8055 10.3283 C 20.5868 10.9972 20.4454 11.5631 20.3811 12.0261 C 20.2846 12.7914 20.365 13.3894 20.6222 13.8203 C 20.873 14.2512 21.3553 14.502 22.0692 14.5727 C 22.2556 14.5727 22.3875 14.502 22.4647 14.3605 C 22.5354 14.2126 22.4647 14.1065 22.2524 14.0422 C 21.8344 13.9071 21.6897 13.3991 21.8184 12.5181 C 21.9727 11.4377 22.3553 10.2222 22.9663 8.87176 C 23.5901 7.50199 24.3232 6.23189 25.1656 5.06148 L 25.1946 5.06148 C 26.5193 4.94572 27.4389 4.98752 27.9534 5.18688 C 28.2106 5.24475 28.291 5.14828 28.1945 4.89749 C 27.963 4.37659 27.2396 4.06469 26.0241 3.9618 L 25.8891 3.9618 C 26.32 3.4409 26.7412 2.99717 27.1528 2.63061 C 27.2942 2.50842 27.3553 2.26405 27.336 1.89749 C 27.3167 1.53736 27.2106 1.26405 27.0177 1.07756 C 26.8312 0.897493 26.5675 0.94251 26.2267 1.21261 C 25.5901 1.74637 24.8248 2.6692 23.9309 3.98109 C 23.2171 4.03256 22.4647 4.13224 21.6737 4.28013 C 20.8441 4.44733 20.2878 4.59524 20.0049 4.72386 C 19.8119 4.82032 19.7155 4.98752 19.7155 5.22546 C 19.7219 5.46983 19.7894 5.6917 19.918 5.89106 C 20.0595 6.09041 20.1849 6.16115 20.2942 6.10328 C 20.9245 5.82032 21.9212 5.56308 23.2846 5.33157 C 22.7894 6.12257 22.3264 6.94251 21.8955 7.79138 Z M 25.8987 10.6081 C 25.4229 10.9425 25.2138 10.9522 25.2717 10.637 C 25.3296 10.3219 25.5225 9.88462 25.8505 9.32514 C 26.1849 8.75922 26.4454 8.3798 26.6319 8.18687 C 26.754 8.0261 26.8055 7.7753 26.7862 7.43446 C 26.7669 7.08719 26.6704 6.82353 26.4968 6.64347 C 26.3232 6.4634 26.0981 6.54057 25.8216 6.87498 C 25.4807 7.28655 25.0949 7.92642 24.664 8.79459 C 24.2267 9.66276 24.0338 10.3316 24.0852 10.801 C 24.1238 11.1419 24.2717 11.4055 24.529 11.592 C 24.7798 11.7721 25.082 11.8364 25.4357 11.7849 C 25.7958 11.7335 26.1431 11.5566 26.4775 11.2544 C 26.9084 10.8621 27.3553 10.3573 27.8183 9.73993 C 28.2878 9.12256 28.664 8.56951 28.947 8.08076 C 29.0113 7.97144 29.0177 7.87819 28.9663 7.80102 C 28.9212 7.71742 28.8473 7.67562 28.7444 7.67562 C 28.6415 7.67562 28.5547 7.72707 28.4839 7.82996 C 28.1238 8.35086 27.6897 8.88462 27.1817 9.43124 C 26.6801 9.97143 26.2524 10.3637 25.8987 10.6081 Z M 26.6608 5.54383 C 26.6158 5.71103 26.6383 5.88145 26.7283 6.05508 C 26.8183 6.22229 26.9373 6.33161 27.0852 6.38306 C 27.2396 6.43453 27.3714 6.38308 27.4807 6.22872 C 27.6415 5.99721 27.9437 5.68209 28.3875 5.28338 C 28.5418 5.14833 28.6158 4.96827 28.6093 4.74319 C 28.6093 4.51811 28.5515 4.30268 28.4357 4.09689 C 28.32 3.8911 28.1817 3.75605 28.0209 3.69174 C 27.8601 3.621 27.7155 3.65959 27.5868 3.8075 C 27.4325 3.99399 27.2556 4.27052 27.0563 4.63708 C 26.8634 4.99721 26.7315 5.29946 26.6608 5.54383 Z M 32.1592 7.72389 C 32.1656 7.4345 32.0273 7.15476 31.7444 6.88466 C 31.4614 6.60813 31.1109 6.43772 30.6929 6.37341 C 30.2814 6.30908 29.8923 6.4184 29.5257 6.70139 C 29.0499 7.06152 28.6286 7.55348 28.2621 8.17727 C 27.8955 8.79463 27.6415 9.42164 27.5 10.0583 C 27.3907 10.5535 27.4518 10.9715 27.6833 11.3123 C 27.9148 11.6467 28.2331 11.8203 28.6383 11.8332 C 29.0434 11.8399 29.4293 11.647 29.7958 11.2544 C 30.1302 10.8943 30.4968 10.3638 30.8955 9.6628 C 30.8891 9.7014 30.873 9.78178 30.8473 9.90395 C 30.7894 10.1483 30.7605 10.3027 30.7605 10.367 C 30.7541 10.74 30.8763 11.0294 31.127 11.2351 C 31.3778 11.4409 31.6865 11.5245 32.0531 11.4859 C 32.4196 11.4473 32.7572 11.2801 33.0659 10.9843 C 33.8955 10.1933 34.5193 9.31874 34.9373 8.36055 C 34.9759 8.27052 34.9662 8.19013 34.9084 8.11939 C 34.8505 8.04222 34.7733 8.00363 34.6769 8.00363 C 34.5804 7.99696 34.5032 8.03877 34.4453 8.12904 C 33.8408 9.05508 33.1753 9.82678 32.4486 10.4441 C 32.1206 10.7142 31.963 10.7014 31.9759 10.4055 C 31.9888 10.1097 32.0981 9.71745 32.3039 9.2287 C 32.5161 8.73353 32.6962 8.42163 32.8441 8.29301 C 32.9212 8.22227 32.9309 8.13867 32.873 8.04221 C 32.8151 7.93932 32.7154 7.85572 32.574 7.79141 C 32.4389 7.72708 32.3007 7.70458 32.1592 7.72391 Z M 31.3489 7.87823 C 31.1817 8.14833 30.9277 8.52775 30.5868 9.01649 C 30.2524 9.50524 29.9084 9.94575 29.5547 10.338 C 29.2074 10.7303 28.9502 10.9007 28.783 10.8493 C 28.6093 10.7978 28.6029 10.5599 28.7637 10.1355 C 28.9309 9.70459 29.1849 9.23514 29.5257 8.72711 C 29.873 8.21264 30.1946 7.83 30.4904 7.5792 C 30.7412 7.36698 30.9534 7.28659 31.127 7.33804 C 31.3007 7.38304 31.3746 7.5631 31.3489 7.87823 Z M 38.6029 4.3284 C 38.873 4.03258 39.1077 3.79464 39.3071 3.61457 C 39.4421 3.49238 39.5096 3.24801 39.5096 2.88145 C 39.516 2.52776 39.4292 2.25445 39.2492 2.06152 C 39.0756 1.87503 38.8215 1.92004 38.4871 2.19657 C 38.0498 2.56313 37.4421 3.27374 36.664 4.3284 C 34.754 4.46345 33.4518 4.64351 32.7572 4.86859 C 32.5386 4.94576 32.4293 5.08081 32.4293 5.27373 C 32.4293 5.46666 32.5064 5.64029 32.6608 5.79463 C 32.8087 5.94897 32.9534 6.00685 33.0949 5.96827 C 33.7572 5.75605 34.7187 5.57277 35.9791 5.41843 C 35.4582 6.17727 34.9984 6.92968 34.5997 7.67566 L 34.6093 7.67566 C 34.0755 8.67887 33.6993 9.54704 33.4807 10.2802 C 33.3456 10.7625 33.3842 11.1869 33.5964 11.5535 C 33.8215 11.9136 34.1559 12.1226 34.5996 12.1805 C 35.0305 12.2448 35.4871 12.1098 35.9694 11.7753 C 36.4196 11.4538 36.8537 11.0068 37.2717 10.4345 C 37.709 9.83643 38.1495 9.15154 38.5932 8.37984 C 38.6704 8.19335 38.6479 8.0583 38.5257 7.9747 C 38.4035 7.89109 38.2781 7.92646 38.1495 8.0808 C 37.8987 8.44736 37.4421 8.97469 36.7797 9.6628 C 36.1238 10.3445 35.5836 10.8139 35.1591 11.0712 C 34.7218 11.3413 34.6157 11.1515 34.8408 10.502 C 35.1238 9.67887 35.5836 8.73675 36.2202 7.67566 L 36.2298 7.67566 C 36.8858 6.62743 37.4453 5.8075 37.9083 5.21586 C 38.8408 5.1001 39.7089 5.13227 40.5128 5.31236 C 40.815 5.35736 40.9115 5.28019 40.8022 5.08085 C 40.635 4.84934 40.352 4.66606 39.9533 4.53101 C 39.5674 4.40882 39.1173 4.3413 38.6028 4.32844 Z M 38.6511 10.6081 C 38.1752 10.9425 37.9662 10.9522 38.0241 10.637 C 38.082 10.3219 38.2749 9.88462 38.6029 9.32514 C 38.9373 8.75922 39.1978 8.3798 39.3842 8.18687 C 39.5064 8.0261 39.5579 7.7753 39.5386 7.43446 C 39.5193 7.08719 39.4228 6.82353 39.2492 6.64347 C 39.0756 6.4634 38.8505 6.54057 38.574 6.87498 C 38.2331 7.28655 37.8473 7.92642 37.4164 8.79459 C 36.9791 9.66276 36.7862 10.3316 36.8376 10.801 C 36.8762 11.1419 37.0241 11.4055 37.2814 11.592 C 37.5322 11.7721 37.8344 11.8364 38.1881 11.7849 C 38.5482 11.7335 38.8955 11.5566 39.2299 11.2544 C 39.6608 10.8621 40.1077 10.3573 40.5707 9.73993 C 41.0402 9.12256 41.4164 8.56951 41.6994 8.08076 C 41.7637 7.97144 41.7701 7.87819 41.7186 7.80102 C 41.6736 7.71742 41.5997 7.67562 41.4968 7.67562 C 41.3939 7.67562 41.3071 7.72707 41.2363 7.82996 C 40.8762 8.35086 40.4421 8.88462 39.9341 9.43124 C 39.4325 9.97143 39.0048 10.3637 38.6511 10.6081 Z M 39.4132 5.54383 C 39.3682 5.71103 39.3907 5.88145 39.4807 6.05508 C 39.5707 6.22229 39.6897 6.33161 39.8376 6.38306 C 39.992 6.43453 40.1238 6.38308 40.2331 6.22872 C 40.3939 5.99721 40.6961 5.68209 41.1399 5.28338 C 41.2942 5.14833 41.3682 4.96827 41.3617 4.74319 C 41.3617 4.51811 41.3039 4.30268 41.1881 4.09689 C 41.0723 3.8911 40.9341 3.75605 40.7733 3.69174 C 40.6125 3.621 40.4678 3.65959 40.3392 3.8075 C 40.1849 3.99399 40.008 4.27052 39.8087 4.63708 C 39.6158 4.99721 39.4839 5.29946 39.4132 5.54383 Z M 40.3489 10.8686 C 40.246 11.1515 40.2717 11.3927 40.426 11.592 C 40.5804 11.7914 40.7958 11.9007 41.0723 11.92 C 41.3489 11.9329 41.5932 11.8364 41.8055 11.6306 C 42.1334 11.3155 42.3971 11.0486 42.5965 10.83 C 42.7958 10.6113 43.0241 10.3477 43.2813 10.039 C 43.3521 9.94897 43.4067 9.88144 43.4453 9.83643 C 43.9405 9.82976 44.4711 9.67221 45.037 9.36376 C 45.6029 9.05508 46.0177 8.68209 46.2813 8.24479 C 46.3778 8.039 46.3746 7.89109 46.2717 7.80106 C 46.1688 7.71103 46.0531 7.73996 45.9245 7.88786 C 45.7766 8.09365 45.5097 8.30908 45.1238 8.53416 C 44.738 8.75924 44.4068 8.88464 44.1303 8.91037 C 44.4261 8.46021 44.619 8.0422 44.709 7.65635 C 44.8055 7.26406 44.783 7.01326 44.6415 6.90394 C 44.5 6.78818 44.3007 6.80425 44.0435 6.95214 C 43.7927 7.09362 43.5547 7.34764 43.3296 7.7142 C 43.111 8.08075 42.9695 8.51805 42.9052 9.02609 C 42.7316 9.32191 42.5579 9.56628 42.3843 9.75921 C 42.2107 9.9457 42.0145 10.1386 41.7959 10.338 C 41.6994 10.4216 41.6319 10.4827 41.5933 10.5213 C 42.0499 9.2994 42.3103 8.31548 42.3746 7.5695 C 42.4068 7.26725 42.3425 7.0486 42.1817 6.91355 C 42.0209 6.77208 41.8216 6.70455 41.5837 6.71098 C 41.3521 6.71765 41.1624 6.77552 41.0145 6.88461 C 40.8602 6.99394 40.8216 7.10969 40.8988 7.23188 C 41.0081 7.47625 41.0081 7.97786 40.8988 8.7367 C 40.783 9.48911 40.5997 10.1997 40.3489 10.8685 Z M 49.3392 8.03257 C 49.4743 7.71103 49.4614 7.38627 49.3006 7.0583 C 49.1463 6.72389 48.8891 6.48917 48.5289 6.35412 C 48.1688 6.21907 47.7733 6.24481 47.3424 6.43132 C 47.0016 6.58566 46.619 6.89113 46.1945 7.34772 C 45.7701 7.80431 45.41 8.30913 45.1141 8.86218 C 44.8119 9.40881 44.6608 9.89434 44.6608 10.3188 C 44.6608 10.7239 44.8119 11.0615 45.1141 11.3316 C 45.4164 11.5953 45.8022 11.7561 46.2717 11.814 C 46.7476 11.8718 47.217 11.8107 47.6801 11.6307 C 48.4196 11.3413 49.008 10.949 49.4453 10.4538 C 49.8826 9.95221 50.2878 9.32842 50.6608 8.58244 C 50.7122 8.47311 50.709 8.37987 50.6512 8.3027 C 50.5997 8.22553 50.5258 8.18694 50.4293 8.18694 C 50.3328 8.18027 50.2621 8.21886 50.2171 8.3027 C 49.9984 8.68855 49.693 9.07119 49.3007 9.45061 C 48.9084 9.83003 48.4968 10.1548 48.066 10.4249 C 47.6351 10.6885 47.2428 10.8654 46.8891 10.9554 C 46.5354 11.0455 46.2782 11.0101 46.1174 10.8493 C 45.9631 10.6885 45.9502 10.3895 46.0788 9.95221 C 46.3232 10.2159 46.6737 10.2577 47.1303 10.0776 C 47.5933 9.89112 48.037 9.59208 48.4615 9.18051 C 48.8923 8.7625 49.1849 8.37987 49.3393 8.0326 Z M 48.0273 7.39592 C 48.3103 7.1837 48.4807 7.12904 48.5386 7.23193 C 48.6029 7.3284 48.545 7.52132 48.3649 7.81071 C 48.1913 8.1001 47.9276 8.3927 47.5739 8.68852 C 47.2202 8.97791 46.8215 9.19977 46.3778 9.35411 C 46.4357 9.23836 46.6704 8.92325 47.082 8.40878 C 47.5 7.89431 47.8151 7.55669 48.0273 7.39592 Z M 51.8858 8.48595 C 51.7894 8.56312 51.799 8.66601 51.9148 8.79463 C 52.037 8.91682 52.2074 8.99077 52.426 9.01649 C 52.6511 9.04222 52.8473 8.96184 53.0145 8.77534 C 53.1559 8.621 53.2653 8.41521 53.3424 8.15797 C 53.426 7.89431 53.4646 7.65959 53.4582 7.4538 C 53.4453 6.99721 53.2556 6.65637 52.8891 6.43129 C 52.5289 6.20621 52.0981 6.1419 51.5964 6.23836 C 51.0948 6.33483 50.6479 6.60171 50.2556 7.03901 C 49.9662 7.35412 49.754 7.69817 49.619 8.07116 C 49.4775 8.43772 49.455 8.77534 49.5514 9.08402 C 49.6415 9.38627 49.873 9.60492 50.246 9.73997 C 50.4132 9.8043 50.6415 9.8654 50.9309 9.92325 C 51.201 9.98112 51.4228 10.0358 51.5965 10.0872 C 51.8408 10.1644 51.9566 10.2512 51.9437 10.3477 C 51.9373 10.4377 51.8344 10.5213 51.635 10.5985 C 51.2299 10.7593 50.828 10.8107 50.4293 10.7528 C 50.0305 10.6885 49.7669 10.5149 49.6383 10.2319 C 49.5354 9.99398 49.4196 9.91038 49.291 9.98112 C 49.1624 10.0519 49.0852 10.1837 49.0595 10.3766 C 48.9952 10.8975 49.0948 11.3059 49.3585 11.6017 C 49.6222 11.8975 49.9791 12.0615 50.4293 12.0937 C 50.8858 12.1194 51.3424 12.0229 51.799 11.8043 C 52.1334 11.6435 52.4164 11.4184 52.6479 11.129 C 52.8794 10.8396 52.9823 10.5503 52.9566 10.2609 C 52.9373 9.96505 52.7379 9.72068 52.3585 9.52775 C 52.217 9.45701 51.9855 9.37984 51.664 9.29624 C 51.4067 9.23191 51.2331 9.17724 51.1431 9.13225 C 50.8858 8.9972 50.7926 8.80106 50.8633 8.54383 C 50.9405 8.28016 51.1206 7.97791 51.4035 7.63708 C 51.6415 7.35412 51.8601 7.16119 52.0595 7.0583 C 52.2653 6.94897 52.4035 6.95231 52.4743 7.0683 C 52.545 7.17763 52.5225 7.3802 52.4067 7.67602 C 52.3489 7.83036 52.2685 7.99113 52.1656 8.15833 C 52.0691 8.3191 51.9759 8.42843 51.8858 8.48631 Z"
         aria-label="Initiatives" />
      <path
         d="M 46.5479 15.0295 C 46.698 14.8062 46.7569 14.5816 46.7246 14.3559 C 46.6923 14.1302 46.5809 13.9729 46.3904 13.8839 C 46.2 13.7951 45.9784 13.8017 45.7258 13.9038 C 45.4764 14.0013 45.2766 14.1617 45.1266 14.3851 C 44.9765 14.6084 44.9176 14.833 44.9499 15.0587 C 44.9767 15.2817 45.0897 15.4366 45.2888 15.5235 C 45.488 15.6105 45.7107 15.6076 45.9569 15.5149 C 46.1977 15.4194 46.3947 15.2577 46.5479 15.0295 Z M 31.7113 15.4265 C 31.58 15.4687 31.4658 15.4306 31.3687 15.3122 C 31.2662 15.191 31.2061 15.034 31.1886 14.8411 C 31.1655 14.6454 31.1972 14.4612 31.2838 14.2886 C 31.3703 14.116 31.5152 14.0044 31.7185 13.9537 C 32.7162 13.6845 33.8615 13.5241 35.1545 13.4725 C 36.4474 13.4209 37.6973 13.4335 38.9041 13.5102 C 40.1053 13.5841 41.5163 13.6964 43.1371 13.8469 C 43.4969 13.8809 43.7632 13.9061 43.936 13.9228 C 44.1089 13.9394 44.1961 14.056 44.1976 14.2727 C 44.1905 14.4914 44.1144 14.6978 43.9693 14.8919 C 43.8242 15.086 43.6633 15.1611 43.4868 15.1172 C 42.6457 14.9123 41.45 14.7808 39.8996 14.7227 C 38.3438 14.6618 36.7971 14.6912 35.2596 14.811 C 33.7222 14.9308 32.5394 15.1359 31.7114 15.4265 Z"
         aria-label="_" />
    </g>
</svg>
