<?xml version="1.0" encoding="UTF-8" ?>
<!DOCTYPE svg PUBLIC "-//W3C//DTD SVG 1.1//EN" "http://www.w3.org/Graphics/SVG/1.1/DTD/svg11.dtd">
<svg width="202pt" height="79pt" viewBox="0 0 202 79" version="1.1" xmlns="http://www.w3.org/2000/svg">
    <style>
        path {
            fill: black;
        }
        @media (prefers-color-scheme: dark) {
            path { fill: white; }
        }
    </style>
    <g transform="translate(0, 12)">
        <path d=" M 33.64 0.00 L 38.27 0.00 C 41.82 0.60 45.83 1.98 47.28 5.63 C 49.10 10.36 47.79 15.58 46.19 20.18 C 42.82 29.20 37.96 37.61 32.38 45.44 C 30.80 47.46 29.29 49.74 26.95 50.94 C 24.90 51.18 23.02 50.07 21.15 49.43 C 29.98 40.93 36.01 30.03 40.83 18.87 C 42.27 15.16 44.00 11.10 43.03 7.06 C 42.19 4.67 39.27 4.22 37.06 4.45 C 28.99 5.34 21.76 9.58 15.34 14.32 C 10.85 17.99 5.80 22.11 4.57 28.08 C 3.80 32.68 9.42 33.82 12.21 36.08 C 9.62 36.16 6.71 37.07 4.31 35.63 C 1.74 34.27 0.73 31.35 0.00 28.73 L 0.00 25.63 C 1.06 20.58 4.15 16.25 7.88 12.80 C 15.00 6.20 23.97 1.40 33.64 0.00 Z" />
        <path d=" M 90.56 14.87 C 93.55 10.45 96.81 6.08 101.27 3.04 C 102.47 4.75 103.85 6.73 103.11 8.95 C 101.66 11.14 99.65 12.88 97.86 14.78 C 99.61 15.11 101.37 15.44 103.12 15.77 C 103.68 15.16 104.80 13.92 105.36 13.31 C 106.81 14.77 108.88 16.65 107.83 18.95 C 106.37 21.10 104.39 22.81 102.59 24.64 C 100.99 23.03 100.54 20.98 101.09 18.79 C 99.09 18.88 97.08 18.96 95.07 19.06 C 89.95 26.46 85.59 34.52 83.24 43.26 C 82.64 45.76 82.03 48.39 82.49 50.97 C 83.20 52.36 84.45 53.36 85.43 54.56 C 82.71 54.97 79.37 54.71 77.90 52.01 C 75.71 47.76 77.53 42.85 78.71 38.58 C 76.29 41.03 73.86 44.47 70.03 44.47 C 67.90 44.54 66.84 42.56 65.66 41.16 C 63.98 42.47 62.30 44.27 59.97 44.09 C 57.85 44.13 55.88 42.20 56.17 40.03 C 56.75 36.17 58.56 32.59 58.93 28.67 C 53.75 33.25 50.02 39.15 45.27 44.14 C 44.02 43.04 41.44 41.83 42.80 39.81 C 45.17 34.47 47.49 29.12 49.52 23.64 C 51.08 24.76 53.04 25.83 53.26 27.98 C 52.79 29.79 51.95 31.47 51.21 33.17 C 53.26 30.51 55.00 27.32 58.11 25.75 C 60.82 24.48 64.50 26.92 63.89 29.99 C 63.16 33.66 61.54 37.10 60.82 40.78 C 66.75 37.86 68.59 31.21 72.30 26.29 C 72.87 25.44 75.03 23.48 75.47 25.45 C 76.82 27.78 76.05 30.53 74.41 32.48 C 72.45 35.18 70.91 38.19 70.24 41.48 C 78.61 36.80 83.57 28.26 87.93 20.07 C 83.77 20.88 79.65 21.88 75.64 23.23 C 75.33 21.41 73.17 18.56 75.97 17.74 C 80.62 15.95 85.67 15.63 90.56 14.87 Z" />
        <path d=" M 138.48 16.32 C 141.26 12.60 144.24 8.92 148.26 6.48 C 148.62 8.30 149.14 10.12 149.16 11.99 C 148.45 13.60 147.32 14.97 146.33 16.41 C 147.75 16.56 149.17 16.72 150.60 16.88 C 151.58 15.63 152.58 14.38 153.59 13.14 C 154.68 14.82 157.08 16.62 155.99 18.86 C 154.58 21.19 152.42 22.93 150.49 24.81 C 149.73 23.01 149.06 21.17 148.41 19.32 C 146.70 19.41 144.99 19.50 143.29 19.59 C 138.18 26.69 132.93 34.05 130.87 42.69 C 135.19 40.28 139.26 37.07 141.64 32.64 C 143.48 29.68 144.78 25.99 148.09 24.33 C 149.04 26.26 150.13 28.70 148.64 30.68 C 146.58 34.17 144.32 37.60 143.29 41.58 C 147.26 39.26 150.82 36.20 153.55 32.49 C 155.21 30.48 154.57 27.70 154.87 25.32 C 156.53 25.51 158.22 25.61 159.83 26.14 C 160.52 30.86 158.50 35.34 157.34 39.81 C 160.36 37.03 162.23 33.40 163.65 29.61 C 164.48 27.05 167.15 26.12 169.39 25.18 C 168.87 28.19 168.06 31.13 167.15 34.04 C 172.08 31.90 174.50 26.65 179.13 24.16 C 182.68 22.20 187.77 25.62 186.58 29.69 C 184.38 35.03 178.95 38.63 173.16 38.68 C 173.79 39.62 174.46 40.53 175.15 41.42 C 179.82 41.42 183.47 38.02 186.79 35.16 C 186.99 31.21 188.32 27.03 191.85 24.83 C 195.05 22.43 199.65 23.10 202.00 26.34 L 202.00 29.53 C 201.61 30.58 201.14 31.59 200.59 32.56 C 199.69 34.40 197.35 33.47 195.74 33.72 C 196.86 31.08 197.92 28.42 198.73 25.67 C 195.65 27.28 192.21 29.70 192.13 33.56 C 194.67 35.46 199.43 35.34 200.15 38.96 C 199.03 45.81 187.92 48.35 184.93 41.42 C 180.95 43.72 175.91 46.07 171.49 43.45 C 168.63 42.13 169.00 38.65 168.70 36.04 C 167.18 36.46 165.65 36.87 164.12 37.27 C 161.56 40.00 159.34 43.31 155.88 44.99 C 154.43 44.97 152.91 44.38 152.30 42.97 C 152.46 40.55 153.28 38.25 153.94 35.94 C 151.31 39.01 148.96 42.81 145.00 44.26 C 142.65 45.21 140.76 43.15 138.89 42.10 C 136.30 43.92 133.52 46.67 130.06 45.78 C 127.69 45.38 126.92 42.82 125.77 41.07 C 123.50 42.24 120.87 44.32 118.26 42.79 C 116.03 41.73 116.56 38.95 116.30 36.94 C 114.32 40.09 112.26 44.53 107.97 44.59 C 104.90 44.59 104.16 41.26 103.28 38.99 C 101.00 41.37 98.65 44.60 94.97 44.49 C 92.21 44.48 90.39 41.54 91.13 38.99 C 92.32 33.26 95.70 28.23 99.45 23.84 C 100.31 25.92 102.12 28.37 100.51 30.57 C 98.45 34.10 96.16 37.55 95.11 41.57 C 100.53 38.68 104.41 33.82 108.01 28.99 C 109.99 26.56 112.48 23.49 116.01 24.04 C 118.76 24.23 120.39 26.68 121.92 28.63 C 122.72 29.15 123.52 29.67 124.32 30.19 C 122.58 33.51 121.16 37.02 120.55 40.75 C 128.16 36.10 131.25 27.48 135.87 20.35 C 131.91 20.98 128.00 22.05 123.99 22.36 C 123.52 21.70 122.57 20.39 122.10 19.73 C 126.74 16.25 133.05 17.25 138.48 16.32 M 175.34 35.34 C 179.14 33.64 182.53 30.87 183.97 26.83 C 179.94 28.21 177.63 32.02 175.34 35.34 M 108.03 41.39 C 113.06 38.85 115.96 33.65 118.67 28.95 C 118.29 28.54 117.53 27.72 117.15 27.32 C 112.32 30.42 109.07 35.78 108.03 41.39 M 187.26 39.30 C 190.27 40.81 194.06 41.26 196.67 38.71 C 194.13 37.85 191.55 37.13 188.97 36.40 C 188.54 37.12 187.69 38.57 187.26 39.30 Z" />
        <path d=" M 121.03 52.31 C 136.33 49.14 152.11 51.27 167.48 52.79 C 166.62 54.22 166.48 57.45 164.04 56.81 C 149.06 54.65 133.68 54.90 118.86 58.02 C 116.69 56.08 118.11 52.34 121.03 52.31 Z" />
        <path d=" M 172.43 52.59 C 173.91 51.72 176.05 52.10 176.59 53.90 C 177.01 57.10 172.83 60.26 170.17 57.88 C 169.20 55.84 170.51 53.48 172.43 52.59 Z" />
    </g>
</svg>
