<?xml version="1.0" encoding="UTF-8" ?>
<!DOCTYPE svg PUBLIC "-//W3C//DTD SVG 1.1//EN" "http://www.w3.org/Graphics/SVG/1.1/DTD/svg11.dtd">
<svg width="202pt" height="81pt" viewBox="0 0 202 81" version="1.1" xmlns="http://www.w3.org/2000/svg">
    <style>
        path {
            fill: black;
        }
        @media (prefers-color-scheme: dark) {
            path { fill: white; }
        }
    </style>
    <g>
        <path d=" M 33.53 0.00 L 38.41 0.00 C 41.71 0.59 45.37 1.82 46.97 5.05 C 49.16 9.57 47.98 14.85 46.49 19.41 C 43.27 28.53 38.45 37.03 32.91 44.95 C 31.35 47.04 29.87 49.29 27.75 50.87 C 25.51 52.20 23.07 50.62 21.28 49.27 C 29.15 42.38 34.17 32.96 38.73 23.71 C 40.88 18.71 43.71 13.57 43.25 7.96 C 42.82 4.56 38.75 4.06 36.02 4.60 C 26.72 6.15 18.46 11.48 11.52 17.65 C 8.14 20.95 4.28 24.93 4.53 30.02 C 5.31 33.46 9.30 34.08 11.97 35.45 C 9.54 37.25 6.03 37.26 3.63 35.40 C 1.43 33.88 0.57 31.22 0.00 28.74 L 0.00 25.60 C 1.14 20.37 4.50 15.98 8.38 12.42 C 15.38 6.06 24.12 1.42 33.53 0.00 Z" />
        <path d=" M 90.11 15.01 C 93.59 11.52 95.80 6.72 100.07 3.97 C 101.62 2.92 102.91 4.67 103.10 6.05 C 104.30 10.04 99.91 12.16 97.88 14.87 C 99.63 15.21 101.38 15.54 103.13 15.89 C 103.79 15.10 104.45 14.31 105.11 13.53 C 107.09 14.55 108.67 16.72 107.91 19.03 C 106.48 21.12 104.49 22.73 102.81 24.60 C 100.53 23.46 100.45 21.05 101.33 18.93 C 99.26 19.02 97.18 19.10 95.10 19.16 C 88.68 28.53 83.13 39.05 82.10 50.54 C 101.01 49.07 120.03 47.95 138.99 48.98 C 140.89 49.23 144.68 48.89 144.04 51.95 C 143.81 52.45 143.35 53.47 143.13 53.98 C 133.94 51.68 124.40 51.86 115.00 51.98 C 104.96 52.32 94.87 52.98 85.00 55.00 C 81.91 55.84 78.07 54.14 77.27 50.88 C 76.18 46.84 77.57 42.74 78.74 38.89 C 76.25 41.33 73.78 44.85 69.90 44.73 C 67.77 44.66 66.51 42.72 65.49 41.11 C 63.87 44.52 57.81 45.94 56.32 41.74 C 55.70 37.33 58.86 33.45 58.91 29.06 C 53.67 33.15 50.44 39.17 45.76 43.82 C 44.05 44.28 41.64 42.27 42.61 40.53 C 44.95 35.06 47.46 29.65 49.37 24.01 C 50.84 24.59 52.43 25.37 52.92 27.02 C 53.91 29.21 51.90 31.17 51.13 33.10 C 53.23 30.89 54.74 28.06 57.30 26.32 C 59.65 24.59 63.45 26.04 63.91 28.96 C 64.22 33.15 60.59 36.77 61.46 40.99 C 64.82 38.47 67.46 35.13 69.22 31.32 C 70.72 28.72 72.05 25.55 75.12 24.50 C 75.68 26.45 76.84 28.71 75.69 30.67 C 73.63 34.13 70.73 37.32 70.43 41.54 C 78.81 36.98 83.53 28.28 87.96 20.23 C 83.84 21.00 79.74 21.90 75.81 23.36 C 75.25 21.98 74.31 20.61 74.54 19.05 C 75.08 17.70 76.76 17.63 77.92 17.16 C 81.89 15.97 86.05 15.72 90.11 15.01 Z" />
        <path d=" M 138.51 16.44 C 141.35 12.91 143.84 8.76 148.16 6.85 C 148.65 8.78 149.79 10.85 148.97 12.87 C 148.17 14.19 147.05 15.27 146.06 16.44 C 147.61 16.61 149.16 16.80 150.70 16.99 C 151.51 15.81 152.31 14.62 153.12 13.43 C 155.02 14.53 156.93 16.53 156.09 18.93 C 154.71 21.19 152.58 22.86 150.76 24.75 C 149.28 23.36 148.87 21.43 148.68 19.48 C 146.87 19.57 145.05 19.66 143.24 19.74 C 140.21 23.94 137.27 28.22 134.82 32.79 C 133.15 35.97 131.32 39.26 131.33 42.96 C 135.34 40.22 139.43 37.16 141.72 32.76 C 143.25 29.75 145.06 26.90 147.20 24.30 C 149.06 25.79 150.19 28.50 148.82 30.70 C 146.76 34.19 144.16 37.47 143.47 41.58 C 147.65 39.60 150.80 36.08 153.68 32.55 C 155.32 30.62 154.70 27.92 154.68 25.62 C 156.57 25.70 160.10 25.00 160.07 27.91 C 160.03 32.10 158.42 36.04 157.20 39.98 C 159.47 37.82 161.82 35.53 162.56 32.36 C 163.37 29.10 165.52 25.91 169.19 25.68 C 169.07 28.62 168.18 31.42 167.07 34.11 C 173.31 32.43 175.08 23.81 182.01 23.79 C 185.75 23.94 186.61 27.98 187.75 30.78 C 188.71 24.45 198.84 20.20 202.00 27.09 L 202.00 29.61 C 201.36 31.33 200.81 33.42 198.95 34.23 C 197.83 33.96 196.71 33.65 195.61 33.30 C 197.07 31.15 198.14 28.77 198.72 26.22 C 195.32 27.06 192.19 30.20 192.18 33.78 C 194.58 35.85 199.34 35.33 200.12 38.96 C 199.55 45.93 187.49 48.95 185.05 41.50 C 180.98 44.27 175.20 46.55 170.78 43.23 C 168.36 41.65 168.84 38.57 169.10 36.12 C 167.49 36.58 165.80 36.85 164.32 37.65 C 161.23 39.84 159.56 43.75 155.95 45.24 C 154.42 45.30 152.57 44.61 152.30 42.92 C 152.46 40.66 153.25 38.51 153.85 36.34 C 150.96 39.43 148.56 43.96 144.03 44.72 C 141.83 45.20 140.37 43.38 139.02 42.01 C 136.54 44.16 133.67 47.01 130.05 46.06 C 127.48 45.65 126.61 43.03 125.95 40.88 C 123.82 42.65 120.85 44.71 118.09 42.95 C 115.81 41.78 116.46 38.99 116.48 36.92 C 114.50 40.16 112.36 44.77 107.99 44.86 C 104.84 44.82 103.81 41.48 103.48 38.92 C 101.41 41.26 99.32 44.22 95.99 44.71 C 93.71 45.16 91.22 43.50 91.04 41.12 C 90.84 38.34 92.06 35.73 93.23 33.29 C 94.97 29.95 96.65 26.30 100.01 24.29 C 100.53 26.32 101.94 28.62 100.66 30.66 C 98.61 34.18 95.92 37.45 95.34 41.63 C 101.04 38.74 104.78 33.39 108.57 28.46 C 110.38 26.20 112.87 23.61 116.07 24.20 C 120.03 24.58 121.22 29.06 124.40 30.79 C 122.42 33.79 120.95 37.15 120.74 40.79 C 128.40 36.28 131.15 27.48 135.90 20.52 C 131.90 21.05 128.00 22.13 124.00 22.57 C 123.14 21.48 122.57 20.23 122.30 18.84 C 127.58 17.33 133.06 16.88 138.51 16.44 M 107.96 40.99 C 110.46 41.26 111.86 38.94 113.28 37.29 C 115.19 34.65 117.45 32.13 118.57 29.02 C 118.18 28.69 117.40 28.03 117.01 27.70 C 112.25 30.47 109.50 35.85 107.96 40.99 M 175.51 35.37 C 179.23 33.89 182.47 31.10 183.85 27.26 C 179.79 28.15 177.75 32.27 175.51 35.37 M 186.21 30.25 C 184.18 34.80 179.15 39.70 173.76 38.15 C 173.82 39.61 173.83 42.07 175.98 41.74 C 180.47 41.10 183.97 37.90 187.26 35.01 C 187.27 33.35 187.07 31.70 186.21 30.25 M 187.21 38.97 C 189.73 41.62 193.53 40.95 196.57 39.72 C 194.31 37.59 189.08 35.32 187.21 38.97 Z" />
    </g>
</svg>
