<?xml version="1.0" encoding="UTF-8" ?>
<!DOCTYPE svg PUBLIC "-//W3C//DTD SVG 1.1//EN" "http://www.w3.org/Graphics/SVG/1.1/DTD/svg11.dtd">
<svg width="132pt" height="80pt" viewBox="0 0 132 80" version="1.1" xmlns="http://www.w3.org/2000/svg">
    <style>
        path {
            fill: black;
        }
        @media (prefers-color-scheme: dark) {
            path { fill: white; }
        }
    </style>

    <g>
        <path d=" M 56.51 0.00 L 58.43 0.00 C 60.71 0.47 62.86 1.86 63.65 4.14 C 65.96 10.01 63.16 16.69 58.54 20.58 C 50.94 26.99 41.06 29.96 31.36 31.31 C 29.56 34.14 27.75 36.96 25.90 39.75 C 34.28 42.22 42.31 45.76 50.73 48.12 C 53.43 48.80 56.24 49.39 59.04 49.08 C 61.59 49.04 61.97 46.00 63.16 44.38 C 65.35 48.52 63.51 55.29 58.07 55.20 C 45.24 55.06 34.71 46.12 22.27 44.09 C 20.49 45.52 18.84 47.14 16.81 48.21 C 13.55 49.98 9.45 45.38 11.47 42.33 C 13.67 40.44 16.72 40.16 19.41 39.38 C 21.28 36.63 23.12 33.85 24.96 31.07 C 18.51 30.56 11.92 29.71 5.98 26.97 C 3.41 25.75 0.94 23.74 0.13 20.91 C -0.35 18.12 1.02 15.40 2.81 13.34 C 4.66 14.13 3.40 16.50 3.83 18.01 C 3.81 20.24 6.02 21.55 7.78 22.41 C 14.32 25.46 21.73 25.29 28.78 25.58 C 34.15 18.74 39.06 11.43 45.71 5.73 C 48.81 3.03 52.46 0.89 56.51 0.00 M 51.99 7.99 C 45.89 12.98 40.59 18.90 35.89 25.20 C 45.17 22.86 54.64 18.18 59.77 9.75 C 60.78 8.14 61.92 4.42 59.03 4.24 C 56.33 4.62 54.12 6.42 51.99 7.99 Z" />
        <path d=" M 102.65 13.65 C 105.89 9.09 108.93 3.87 114.09 1.25 C 114.77 2.43 115.84 3.53 115.83 4.99 C 116.42 7.78 113.59 9.26 112.11 11.11 C 105.47 18.57 99.98 27.03 95.52 35.95 C 100.36 32.17 105.49 28.21 108.23 22.56 C 110.18 23.19 112.78 24.49 112.36 26.98 C 110.44 30.27 106.94 32.13 104.20 34.66 C 105.07 35.73 105.31 37.94 107.13 37.70 C 110.63 37.00 113.25 34.36 115.71 31.96 C 115.73 25.99 121.75 19.62 127.94 21.95 C 133.55 23.79 130.21 35.23 124.42 31.20 C 125.83 29.04 127.29 26.80 127.35 24.11 C 124.09 25.05 120.61 28.43 121.19 31.97 C 123.36 33.26 126.06 33.44 128.07 35.01 C 129.84 36.78 128.60 39.53 126.98 40.93 C 124.11 43.65 118.98 45.03 115.71 42.26 C 114.21 41.09 114.28 39.04 114.01 37.35 C 111.21 39.69 107.90 42.33 104.03 41.86 C 101.62 41.26 101.07 38.56 100.20 36.61 C 97.73 38.35 95.43 40.35 92.81 41.87 C 91.41 42.57 90.55 40.77 89.48 40.23 C 87.23 42.33 82.69 43.41 81.10 40.02 C 80.02 35.50 83.60 31.40 83.58 26.87 C 78.16 31.08 75.05 37.55 69.87 41.96 C 67.34 41.46 66.43 39.08 67.69 36.92 C 65.53 39.56 62.95 42.89 59.14 42.63 C 56.46 42.51 54.76 39.62 55.43 37.13 C 56.51 32.33 59.08 27.95 61.96 24.01 C 62.60 22.53 64.64 22.33 65.10 24.07 C 66.18 26.41 65.27 28.87 63.71 30.71 C 61.84 33.35 60.22 36.23 59.60 39.45 C 64.06 37.55 67.14 33.60 70.20 30.01 C 72.23 27.66 72.91 24.56 74.13 21.78 C 76.09 22.74 78.37 24.53 77.75 27.02 C 77.03 28.81 76.05 30.47 75.17 32.19 C 77.38 29.42 79.10 26.07 82.16 24.11 C 84.86 22.32 88.97 24.63 88.62 27.92 C 87.91 31.66 85.94 35.07 85.64 38.91 C 87.87 37.49 90.17 35.80 91.19 33.25 C 94.06 26.20 98.64 20.07 102.65 13.65 M 115.42 35.65 C 117.41 39.49 122.04 39.19 125.42 37.57 C 123.37 35.26 119.89 35.43 117.19 34.37 C 116.75 34.69 115.86 35.33 115.42 35.65 Z" />
        <path d=" M 69.18 11.55 C 71.43 12.25 72.98 14.61 72.28 16.96 C 70.77 19.00 68.96 20.84 66.96 22.39 C 62.58 19.61 67.34 14.56 69.18 11.55 Z" />
        <path d=" M 69.15 49.54 C 84.40 48.30 99.71 47.66 115.01 47.62 C 119.89 47.75 124.82 47.69 129.64 48.56 C 131.73 49.14 130.63 51.56 130.23 52.98 C 119.98 50.69 109.42 50.84 98.98 51.13 C 89.30 51.58 79.57 52.30 70.08 54.38 C 69.28 52.88 69.00 51.23 69.15 49.54 Z" />
    </g>
</svg>
