<?xml version="1.0" encoding="UTF-8" standalone="no"?>
<svg
   width="34.91988mm"
   height="33.135008mm"
   viewBox="0 0 34.91988 33.135008"
   version="1.1"
   xmlns="http://www.w3.org/2000/svg"
   xmlns:svg="http://www.w3.org/2000/svg">
    <style>
      path {
        fill: black;
      }
      @media (prefers-color-scheme: dark) {
        path { fill: white; }
      }
    </style>
    <g transform="translate(0, 9)">
      <path
         d="m 5.72859,11.7724 c 0.0643,-0.0515 0.10932,-0.0901 0.13505,-0.1158 0.76527,0.1287 1.45337,0.3055 2.0643,0.5306 0.61093,0.2251 1.39228,0.5466 2.34406,0.9646 0.8682,0.3987 1.746,0.746 2.6334,1.0418 0.8939,0.2894 1.7171,0.4212 2.4695,0.3955 0.463,-0.0193 0.8231,-0.1704 1.0804,-0.4534 0.2572,-0.2894 0.4148,-0.6238 0.4726,-1.0032 0.0579,-0.3858 0.0418,-0.7235 -0.0482,-1.0128 -0.0707,-0.1801 -0.1607,-0.2605 -0.2701,-0.2412 -0.1029,0.0129 -0.1672,0.1318 -0.1929,0.3569 -0.0579,0.508 -0.4244,0.7621 -1.0997,0.7621 -0.6688,0 -1.4469,-0.1351 -2.3344,-0.4052 -0.881,-0.2701 -1.9839,-0.6495 -3.30865,-1.1382 -0.791,-0.2959 -1.40193,-0.5145 -1.8328,-0.656 C 7.41672,10.6566 7.08231,10.5698 6.83794,10.5377 7.40386,9.63735 7.89582,8.87529 8.31382,8.2515 9.34919,8.1486 10.4489,7.90744 11.6129,7.52802 12.7768,7.1486 13.8315,6.63735 14.7768,5.99426 15.7286,5.35117 16.3846,4.60841 16.7447,3.76597 16.9633,3.25793 17.0662,2.7306 17.0534,2.18398 17.0467,1.63736 16.9213,1.1679 16.6772,0.775621 16.4328,0.376908 16.0662,0.12932 15.5775,0.032857 15.0887,-0.0636057 14.4971,0.0521497 13.8026,0.380123 13.1338,0.695236 12.4714,1.15183 11.8154,1.7499 11.1659,2.34797 10.5743,2.97176 10.0405,3.62128 9.51318,4.26437 8.8926,5.06179 8.17877,6.01356 7.92797,6.34796 7.74148,6.59555 7.61929,6.75632 6.63537,6.75632 5.62251,6.70166 4.58071,6.59233 3.53891,6.48301 2.62251,6.22256 1.83152,5.81098 1.04695,5.39941 0.792933,4.78526 1.06946,3.96854 1.09518,3.89137 1.0791,3.81099 1.02123,3.72739 0.96335,3.63736 0.88618,3.59234 0.789719,3.59234 0.693256,3.58567 0.603224,3.64355 0.519623,3.76597 -0.0205697,4.58912 -0.139541,5.29009 0.16271,5.86886 0.46496,6.44121 1.00515,6.89458 1.78329,7.22899 2.56785,7.55696 3.40065,7.7949 4.28167,7.94281 5.1627,8.09072 5.93762,8.17433 6.60643,8.19362 6.43923,8.44442 6.22058,8.77882 5.95048,9.19683 5.53891,9.82706 5.2656,10.2322 5.13055,10.4123 4.6611,10.5087 4.26881,10.6052 3.9537,10.7016 c -0.30868,0.0901 -0.57234,0.2091 -0.79099,0.357 -0.18007,0.1286 -0.27332,0.3054 -0.27975,0.5305 -0.0064,0.2251 0.05791,0.447 0.19293,0.6656 0.14148,0.2187 0.32154,0.3826 0.54019,0.492 0.22508,0.1093 0.45338,0.1286 0.68489,0.0579 0.18649,-0.0579 0.3955,-0.1769 0.62701,-0.3569 0.23151,-0.1801 0.49839,-0.4052 0.80064,-0.6753 z M 14.8347,1.37369 c 0.5723,-0.28296 0.9518,-0.32476 1.1382,-0.1254 0.1865,0.19936 0.1801,0.54984 -0.0192,1.05144 -0.2123,0.48875 -0.5949,1.01286 -1.148,1.57235 -0.5466,0.55949 -1.2733,1.09325 -2.18,1.60128 C 11.7254,5.97497 10.6836,6.36725 9.50029,6.65021 9.90543,6.07786 10.4231,5.43799 11.0533,4.7306 c 0.6303,-0.71383 1.283,-1.37942 1.9582,-1.99678 0.6753,-0.61737 1.283,-1.07074 1.8232,-1.36013 z m 1.6206,8.70091 c -0.4759,0.3344 -0.6849,0.3441 -0.627,0.0289 C 15.8861,9.78843 16.0791,9.35113 16.407,8.79165 16.7414,8.22573 17.0019,7.84631 17.1884,7.65339 17.3106,7.49262 17.362,7.24181 17.3427,6.90097 17.3235,6.55371 17.227,6.29005 17.0533,6.10998 16.8797,5.92991 16.6546,6.00708 16.3781,6.34149 16.0373,6.75306 15.6514,7.39293 15.2205,8.2611 c -0.4373,0.86817 -0.6302,1.53698 -0.5787,2.0064 0.0385,0.3409 0.1865,0.6045 0.4437,0.791 0.2508,0.1801 0.553,0.2444 0.9067,0.1929 0.3602,-0.0514 0.7074,-0.2283 1.0418,-0.5305 0.4309,-0.3923 0.8778,-0.8971 1.3409,-1.51446 0.4694,-0.61737 0.8456,-1.17042 1.1286,-1.65916 0.0643,-0.10933 0.0708,-0.20258 0.0193,-0.27975 -0.045,-0.0836 -0.119,-0.1254 -0.2219,-0.1254 -0.1029,0 -0.1897,0.05145 -0.2604,0.15434 -0.3602,0.5209 -0.7942,1.05466 -1.3023,1.60129 -0.5016,0.54019 -0.9292,0.93247 -1.2829,1.17684 z m 0.762,-5.06426 c -0.045,0.16721 -0.0225,0.33763 0.0675,0.51126 0.0901,0.1672 0.209,0.27652 0.3569,0.32797 0.1544,0.05147 0.2862,2e-5 0.3955,-0.15434 C 18.198,5.46372 18.5003,5.1486 18.944,4.74989 19.0983,4.61484 19.1723,4.43478 19.1658,4.2097 19.1658,3.98462 19.108,3.76919 18.9922,3.5634 18.8765,3.35761 18.7382,3.22256 18.5774,3.15825 18.4167,3.08752 18.272,3.1261 18.1433,3.27401 17.989,3.4605 17.8122,3.73703 17.6128,4.10359 17.4199,4.46372 17.288,4.76597 17.2173,5.01034 Z m 4.2058,4.66881 c -0.1158,0.50165 -0.0514,0.88425 0.1929,1.14785 0.2444,0.2573 0.5627,0.3666 0.955,0.328 0.3923,-0.0386 0.7396,-0.2122 1.0418,-0.5209 0.3987,-0.4115 0.7492,-0.87778 1.0514,-1.39868 0.3023,-0.52733 0.5338,-0.98393 0.6946,-1.36978 0.0515,-0.12861 0.0515,-0.22829 0,-0.29903 C 25.3138,7.49587 25.243,7.47337 25.1466,7.49911 25.0565,7.51838 24.9858,7.57947 24.9343,7.68239 24.7414,8.08754 24.4392,8.54734 24.0276,9.06181 23.6225,9.56985 23.2784,9.91069 22.9954,10.0843 22.7511,10.2322 22.645,10.1711 22.6771,9.90104 22.7093,9.68882 22.8539,9.22901 23.1112,8.52162 23.2655,8.09719 23.362,7.81423 23.4006,7.67275 23.497,7.29333 23.4488,6.96857 23.2559,6.69847 23.0694,6.42194 22.8057,6.26439 22.4649,6.2258 22.1241,6.1808 21.8025,6.28048 21.5003,6.52484 21.288,6.69204 21.0855,6.89783 20.8925,7.1422 20.6996,7.38014 20.4842,7.67274 20.2462,8.02001 20.0019,8.36728 19.8379,8.5795 19.7543,8.65667 20.0115,8.27082 20.272,7.80779 20.5356,7.2676 20.6192,7.08754 20.6257,6.8914 20.5549,6.67918 20.4842,6.46053 20.3685,6.27404 20.2077,6.1197 20.0533,5.95893 19.9022,5.87211 19.7543,5.85925 c -0.1479,-0.01287 -0.2508,0.07073 -0.3087,0.2508 -0.1672,0.52733 -0.344,1.01929 -0.5305,1.47588 -0.1865,0.45016 -0.418,0.97428 -0.6946,1.57235 -0.225,0.48874 -0.389,0.85212 -0.4919,1.09002 -0.0515,0.1222 -0.0161,0.2637 0.1061,0.4244 0.1222,0.1608 0.2733,0.2766 0.4534,0.3473 0.18,0.0643 0.3215,0.045 0.4244,-0.0579 0.1736,-0.1736 0.6013,-0.6881 1.283,-1.54339 0.4823,-0.59807 0.8649,-1.06753 1.1479,-1.40836 0.2894,-0.34084 0.5048,-0.56592 0.6463,-0.67524 0.18,-0.14148 0.2797,-0.15435 0.299,-0.0386 0.0257,0.11576 0.0129,0.26689 -0.0386,0.45338 -0.0257,0.07717 -0.0836,0.24115 -0.1736,0.49196 -0.238,0.6881 -0.3891,1.1672 -0.4534,1.4373 z m 8.1222,-8.999992 c -0.8232,0.681672 -1.8328,1.987132 -3.029,3.916392 -0.045,0.07074 -0.1832,0.28617 -0.4148,0.6463 -0.3215,0.49518 -0.5948,0.92283 -0.8199,1.28296 -0.6817,1.07395 -1.2154,2.24437 -1.6013,3.51129 -0.09,0.3215 -0.0064,0.598 0.2508,0.8295 0.2508,0.238 0.4823,0.2991 0.6946,0.1833 0.0257,-0.0192 0.0675,-0.0482 0.1254,-0.0868 0.2122,-0.1607 0.3987,-0.299 0.5595,-0.4148 0.643,-0.4759 1.0514,-0.77167 1.225,-0.88743 0.1222,0.52733 0.3023,0.90993 0.5402,1.14793 0.238,0.2315 0.5338,0.3215 0.8875,0.2701 0.7009,-0.0965 1.4308,-0.5016 2.1897,-1.21545 0.3794,-0.34727 0.7074,-0.68489 0.9839,-1.01286 0.283,-0.33441 0.5145,-0.65595 0.6945,-0.96463 C 31.8893,7.76277 31.8507,7.65666 31.7157,7.56663 31.5871,7.4766 31.4745,7.49266 31.3781,7.61483 31.0501,8.01354 30.6192,8.46049 30.0855,8.95566 29.5453,9.45727 29.0212,9.78203 28.5131,9.92994 28.0179,10.0714 27.7253,9.7756 27.6353,9.04248 28.0019,8.79811 28.3974,8.49586 28.8218,8.13573 29.272,7.76274 29.5485,7.47656 29.6514,7.27721 29.7864,7.01998 29.7575,6.76596 29.5646,6.51515 29.3717,6.26435 29.1434,6.10358 28.8797,6.03284 28.616,5.96851 28.4778,6.04246 28.4649,6.2547 28.4456,6.47978 28.1112,6.92994 27.4617,7.60518 26.7993,8.30615 26.0662,8.93959 25.2623,9.5055 25.9119,8.19361 26.5614,7.06178 27.2109,6.11001 27.854,5.1904 28.2848,4.58911 28.5035,4.30615 29.2045,3.38654 29.8604,2.6502 30.4713,2.09715 30.6128,1.97496 30.6739,1.73059 30.6546,1.36403 30.6354,1.00391 30.5292,0.730595 30.3363,0.5441 30.1498,0.364036 29.8861,0.409052 29.5453,0.679148 Z m 3.4919,7.273302 c -0.0964,0.07717 -0.0868,0.18007 0.0289,0.30868 0.1222,0.12219 0.2926,0.19614 0.5113,0.22187 0.2251,0.02573 0.4212,-0.05465 0.5884,-0.24116 0.1415,-0.15434 0.2508,-0.36013 0.328,-0.61736 C 34.5774,7.36082 34.616,7.1261 34.6095,6.92031 34.5967,6.46372 34.407,6.12288 34.0404,5.8978 33.6803,5.67272 33.2494,5.60841 32.7478,5.70487 32.2462,5.80134 31.7992,6.06822 31.407,6.50552 c -0.2894,0.31511 -0.5016,0.65916 -0.6367,1.03215 -0.1415,0.36656 -0.164,0.70418 -0.0675,1.01286 0.09,0.30225 0.3216,0.5209 0.6945,0.65595 0.1672,0.06433 0.3955,0.12543 0.6849,0.18328 0.2701,0.05787 0.492,0.11253 0.6656,0.16398 0.2444,0.07717 0.3601,0.16399 0.3473,0.26045 -0.0067,0.09003 -0.1096,0.17364 -0.3087,0.25081 -0.4051,0.1608 -0.8071,0.2122 -1.2058,0.1543 C 31.1819,10.155 30.9182,9.98137 30.7896,9.69844 30.6867,9.4605 30.571,9.3769 30.4424,9.44764 30.3137,9.51837 30.2366,9.6502 30.2108,9.84313 c -0.0643,0.52087 0.0354,0.92927 0.2991,1.22507 0.2636,0.2958 0.6206,0.4598 1.0707,0.492 0.4566,0.0257 0.9132,-0.0708 1.3698,-0.2894 0.3344,-0.1608 0.6174,-0.3859 0.8489,-0.6753 0.2315,-0.2893 0.3344,-0.5787 0.3087,-0.86812 C 34.0887,9.43156 33.8893,9.18719 33.5099,8.99426 33.3684,8.92352 33.1369,8.84635 32.8153,8.76275 32.5581,8.69842 32.3845,8.64375 32.2944,8.59876 32.0372,8.46371 31.944,8.26757 32.0147,8.01034 32.0919,7.74667 32.2719,7.44442 32.5549,7.10359 32.7928,6.82063 33.0115,6.6277 33.2108,6.52481 c 0.2058,-0.10933 0.3441,-0.10599 0.4148,0.01 0.0708,0.10932 0.0483,0.31189 -0.0675,0.60771 -0.0578,0.15434 -0.1382,0.31511 -0.2411,0.48232 -0.0965,0.16077 -0.1897,0.27009 -0.2798,0.32797 z"
         aria-label="Links" />
      <path
         d="m 34.1729,13.9645 c 0.1614,0.0287 0.289,-0.0463 0.3826,-0.2249 0.099,-0.1823 0.1173,-0.3788 0.0548,-0.5898 -0.0535,-0.2088 -0.1958,-0.3287 -0.4268,-0.3598 -1.4953,-0.2167 -4.008,-0.269 -7.5382,-0.1569 -3.5214,0.1142 -6.2362,0.2549 -8.1442,0.4221 -0.1399,0.0185 -0.2181,0.1425 -0.2349,0.3722 -0.0146,0.2208 0.0236,0.4353 0.1147,0.6436 0.0999,0.2105 0.2192,0.2993 0.3577,0.2665 1.1554,-0.2838 2.7433,-0.51 4.7639,-0.6788 2.0294,-0.1666 4.0393,-0.2305 6.0296,-0.1914 1.9903,0.039 3.5373,0.2049 4.641,0.4975 z"
         aria-label="_" />
    </g>
</svg>
