<?xml version="1.0" encoding="UTF-8" standalone="no"?>
<svg
   width="90.186127mm"
   height="5.5313144mm"
   viewBox="0 0 90.186127 5.5313144"
   version="1.1"
   xmlns="http://www.w3.org/2000/svg"
   xmlns:svg="http://www.w3.org/2000/svg">
  <style>
    path {
      fill: black;
    }
    @media (prefers-color-scheme: dark) {
      path { fill: white; }
    }
  </style>
  <path
     d="M 5.3845338,2.3534525 Q 5.6015748,2.0061869 5.7752077,1.7426371 5.8868287,1.5845072 6.0077516,1.4263774 6.3457155,0.98299358 6.6402711,0.71634319 q 0.068213,-0.0589111 0.058911,-0.23564453 -0.0093,-0.17363281 -0.1023193,-0.2635498 -0.089917,-0.0868164 -0.254248,0.0434082 -0.396875,0.3286621 -0.973584,1.25883784 -0.040308,0.062012 -0.1240234,0.1984375 -0.018604,0.031006 -0.027905,0.046509 -0.049609,0.080615 -0.1674316,0.2790527 -0.0093,0.015503 -0.012402,0.021704 -0.021704,0.037207 -0.062012,0.099219 -0.049609,0.080615 -0.065112,0.1085205 -0.027905,-0.0031 -0.093018,-0.0093 -0.086816,-0.0062 -0.1395264,-0.012402 Q 4.4264528,2.2263285 4.2466188,2.2232279 4.4233522,1.8573588 4.5101686,1.4914897 4.6620973,0.8465678 4.4419557,0.42488812 4.2218141,0.00630902 3.4900759,1.0784644e-4 2.8389528,-0.00609332 2.0328005,0.34427288 1.2173464,0.69773968 0.643738,1.2248393 0.06082786,1.75814 0.0081179,2.2759379 -0.02908913,2.6014994 0.10423606,2.8061381 0.23756125,3.0107767 0.43599875,3.0696879 0.63753683,3.128599 0.78946554,3.0634867 1.0158083,2.9611674 0.83287374,2.9177592 0.50111105,2.8340433 0.40809348,2.6201029 0.3150759,2.4092631 0.45150168,2.1581156 0.63443625,1.8170512 1.1274294,1.4449809 1.6111208,1.0791117 2.2281374,0.79385784 2.8327516,0.52100628 3.331946,0.45589398 q 0.3255615,-0.037207 0.5270996,0.0155029 0.2015381,0.05271 0.2821533,0.19533691 0.1612305,0.28215331 -0.077515,0.86196291 -0.1209228,0.2914551 -0.3472656,0.6852295 -0.068213,0 -0.1302246,0.0031 -0.434082,0.0093 -0.8402588,0.05581 -0.3999755,0.046509 -0.7720458,0.1953369 -0.083716,0.031006 -0.068213,0.1550293 0.015503,0.1209229 0.093017,0.2139404 0.083716,0.093018 0.1643311,0.058911 0.3193603,-0.142627 0.6790283,-0.2108399 0.1736328,-0.034106 0.3286621,-0.049609 0.1581299,-0.015503 0.2945557,-0.015503 -0.027905,0.037207 -0.093018,0.1302246 -0.3999756,0.5426026 -0.6790283,0.8588623 -0.3193604,0.3627686 -0.5984131,0.449585 -0.1023193,0.049609 -0.0093,0.1767334 0.093018,0.127124 0.3100586,0.1302246 0.217041,0.0031 0.4588867,-0.232544 0.3007569,-0.2976562 0.5208985,-0.5922119 0.2697509,-0.3627685 0.5581054,-0.7999511 0.074414,-0.1116211 0.096118,-0.1457276 0.4309814,0.0062 0.6914307,0.021704 -0.2883545,0.5488037 -0.396875,0.9146729 -0.1023194,0.344165 -0.074414,0.5736084 0.027905,0.2201416 0.2015381,0.3131591 0.179834,0.093018 0.3286621,0.071314 Q 4.9287481,4.4649506 4.860535,4.3967376 4.6713991,4.2510111 4.7334108,3.9068461 4.7861208,3.5688822 4.9318483,3.2371195 5.083777,2.9022562 5.2233034,2.641807 q 0,0 0.0031,0 0.0062,0.0031 0.012402,0.0031 0.2387451,0.024805 0.4712891,0.1209229 0.062012,0.018604 0.05271,-0.077515 Q 5.7535036,2.5983988 5.6542848,2.4898783 5.5550661,2.387559 5.3845338,2.3534525 Z M 7.1549683,2.6480082 Q 7.1580689,2.5084818 7.0216431,2.3782572 6.8852173,2.244932 6.6836792,2.2139262 6.4852417,2.1829203 6.3085083,2.3193461 6.079065,2.4929789 5.9023316,2.7937357 5.7255982,3.091392 5.6573853,3.39835 q -0.05271,0.2387451 0.058911,0.4030761 0.1116211,0.1612305 0.306958,0.1674317 0.1953369,0.0031 0.3720703,-0.1860352 0.1612305,-0.1736328 0.3534668,-0.5115966 -0.0031,0.018604 -0.015503,0.077515 -0.027905,0.1178223 -0.027905,0.1488281 -0.0031,0.179834 0.1178223,0.2790528 0.1209228,0.099219 0.2976562,0.080615 0.1767334,-0.018604 0.3255616,-0.1612305 0.3999755,-0.381372 0.6015136,-0.8433593 0.018604,-0.043408 -0.0093,-0.077515 -0.027905,-0.037207 -0.074414,-0.037207 -0.046509,-0.0031 -0.074414,0.040308 Q 7.5983521,3.2247172 7.2479859,3.5223734 7.089856,3.652598 7.0960571,3.5099711 q 0.0062,-0.142627 0.10542,-0.3782715 0.1023193,-0.2387451 0.1736328,-0.3007568 0.037207,-0.034107 0.0093,-0.080615 -0.027905,-0.049609 -0.096118,-0.080615 -0.065112,-0.031006 -0.1333252,-0.021704 z M 6.8945191,2.6976176 Q 6.8139038,2.8278422 6.6495728,3.0634867 6.4883423,3.2991312 6.3178101,3.488267 6.1503784,3.6774027 6.0697632,3.652598 5.9860474,3.6277933 6.063562,3.4231547 6.1441773,3.2154154 6.3085083,2.9704691 6.47594,2.7224223 6.6185669,2.6014994 6.7394898,2.4991801 6.8232056,2.5239848 q 0.083716,0.021704 0.071314,0.1736328 z m 0.5705082,0.8588623 q -0.055811,0.1023193 0.012402,0.2046386 0.065112,0.1023194 0.1767334,0.127124 0.1085205,0.024805 0.1705322,-0.077515 Q 7.9704228,3.5750834 8.178162,3.3146342 8.3859013,3.0541849 8.6587528,2.7410258 q -0.015503,0.074414 -0.018604,0.2201416 0,0.040308 0,0.062012 -0.0031,0.1612305 0.074414,0.254248 0.080615,0.089917 0.1953369,0.1085205 0.1178223,0.018603 0.217041,-0.018604 Q 9.3129765,3.2991312 9.4649052,3.1627054 9.6199345,3.0262797 9.7036503,2.8650492 9.7501591,2.7627299 9.712952,2.7224223 9.675745,2.6790141 9.6168339,2.7410258 9.3563847,3.0510844 9.2199589,3.1037943 9.0835331,3.1565043 9.0587284,3.001475 9.0370243,2.8433451 9.1083378,2.5394877 9.1393437,2.4030619 9.0711308,2.334849 9.0029179,2.2666361 8.8850956,2.2852396 8.7703739,2.3038432 8.6773564,2.4030619 8.5657353,2.5239848 8.3828007,2.7441264 8.2587773,2.8960551 8.193665,2.9673685 8.2060673,2.948765 8.230872,2.911558 8.3238896,2.7813334 8.3672978,2.6666117 q 0.040308,-0.1085205 0,-0.2015381 -0.040308,-0.093018 -0.1271241,-0.1457275 -0.083716,-0.05271 -0.1612304,-0.049609 -0.074414,0.0031 -0.089917,0.068213 Q 7.923914,2.5952982 7.79679,2.8867533 7.6665654,3.1751078 7.4650273,3.5564799 Z M 10.069519,3.3301371 Q 9.8183718,3.6836039 9.7067507,3.652598 9.6261355,3.6246927 9.6912478,3.4200541 9.7594607,3.218516 9.91449,2.9704691 q 0.15813,-0.2573486 0.285254,-0.3689697 0.117822,-0.1023193 0.198437,-0.080615 0.08372,0.021704 0.07752,0.1767334 -0.136426,0.2480468 -0.406177,0.6325195 z M 10.900476,2.0837016 Q 10.807459,2.2418314 10.683435,2.4960795 10.578015,2.3162455 10.333069,2.2356303 10.088123,2.1519144 9.8865847,2.3162455 9.6664431,2.4898783 9.5083132,2.7875346 9.3408816,3.1006937 9.2912722,3.39835 q -0.046509,0.2387451 0.071314,0.4030761 0.1178222,0.1643311 0.3100586,0.1643311 0.1891357,0.0031 0.3534662,-0.1829346 0.117822,-0.1333252 0.269751,-0.4061767 -0.05581,0.2852539 0.02791,0.4836914 0.09922,0.2294433 0.424781,0.3131592 0.09302,0.015503 0.130224,-0.046509 0.04031,-0.062012 -0.05271,-0.1147217 -0.182934,-0.096118 -0.08061,-0.5053955 0.04961,-0.1829346 0.124023,-0.3658692 0.189136,-0.4557861 0.427881,-0.8278564 0.220142,-0.3472656 0.406177,-0.5922119 0.337964,-0.4433838 0.63252,-0.7100342 0.06821,-0.0589111 0.05891,-0.23564448 -0.0093,-0.17363281 -0.10232,-0.2635498 -0.08992,-0.0868164 -0.254248,0.0434082 -0.396875,0.3286621 -0.973584,1.25883788 -0.08371,0.1302246 -0.164331,0.269751 z m 2.449463,0.9332763 h -0.0031 q 0,0 0,-0.0031 0.0031,-0.0031 0.0031,-0.0031 z m -0.322461,-0.077515 q -0.04651,0.1333252 -0.164331,0.3720703 -0.114722,0.2387451 -0.201538,0.3286621 -0.05891,0.062012 -0.10232,0.031006 -0.04031,-0.031006 0,-0.2046386 0.03411,-0.1457276 0.09612,-0.3193604 0.06201,-0.1736328 0.111621,-0.269751 0.03721,-0.071313 -0.03411,-0.1426269 -0.06821,-0.071314 -0.170532,-0.089917 -0.102319,-0.021704 -0.142627,0.040308 -0.06511,0.099219 -0.179834,0.2883545 -0.114722,0.1953369 -0.201538,0.3162598 -0.08372,0.1209228 -0.198438,0.2356445 -0.155029,0.1519287 -0.182934,0.1023193 -0.02481,-0.049609 0.05271,-0.2294433 0.08061,-0.1829346 0.217041,-0.3937744 0.136426,-0.2139405 0.26665,-0.3472657 0.04961,-0.05271 0.03721,-0.1488281 -0.0124,-0.099219 -0.07131,-0.1860351 -0.05891,-0.086816 -0.136426,-0.1116211 -0.07752,-0.027905 -0.145728,0.046509 -0.148828,0.1612304 -0.31936,0.4774902 -0.173633,0.3131592 -0.241846,0.6263183 -0.07131,0.3100586 0.05581,0.4805909 0.06511,0.086816 0.170532,0.093017 0.10232,0.0031 0.217041,-0.05271 0.145728,-0.068213 0.282154,-0.2108399 0.136425,-0.1426269 0.238745,-0.3007568 -0.0248,0.089917 -0.0186,0.2325439 0.0062,0.142627 0.06821,0.2542481 0.06511,0.1116211 0.195337,0.1209228 0.269751,0.015503 0.449585,-0.2263427 0.179834,-0.2449463 0.294556,-0.5208985 0.0155,-0.037207 0.0186,-0.040308 0.120923,0.068213 0.272852,0.031006 0.151928,-0.040308 0.288354,-0.1674317 0.136426,-0.127124 0.220142,-0.3100585 0.0248,-0.058911 0,-0.10542 -0.0217,-0.049609 -0.06511,-0.05271 -0.04031,-0.0031 -0.06201,0.046509 -0.04341,0.099219 -0.204639,0.2046386 -0.16123,0.1023194 -0.282153,0.055811 0.07751,-0.1643311 0.08682,-0.3348633 0.0093,-0.1953369 -0.07441,-0.2728516 -0.08061,-0.080615 -0.189136,-0.027905 -0.10852,0.05271 -0.173633,0.2108398 -0.04651,0.1085205 -0.06511,0.2387451 -0.0186,0.1302246 -0.0124,0.232544 z M 15.055261,2.6480082 Q 15.058361,2.5084818 14.921935,2.3782572 14.78551,2.244932 14.583972,2.2139262 14.385534,2.1829203 14.208801,2.3193461 13.979357,2.4929789 13.802624,2.7937357 13.625891,3.091392 13.557678,3.39835 q -0.05271,0.2387451 0.05891,0.4030761 0.111621,0.1612305 0.306958,0.1674317 0.195337,0.0031 0.37207,-0.1860352 0.161231,-0.1736328 0.353467,-0.5115966 -0.0031,0.018604 -0.0155,0.077515 -0.0279,0.1178223 -0.0279,0.1488281 -0.0031,0.179834 0.117822,0.2790528 0.120923,0.099219 0.297656,0.080615 0.176734,-0.018604 0.325562,-0.1612305 0.399975,-0.381372 0.601513,-0.8433593 0.0186,-0.043408 -0.0093,-0.077515 -0.02791,-0.037207 -0.07441,-0.037207 -0.04651,-0.0031 -0.07441,0.040308 -0.291456,0.4464844 -0.641822,0.7441406 -0.15813,0.1302246 -0.151928,-0.012402 0.0062,-0.142627 0.105419,-0.3782715 0.10232,-0.2387451 0.173633,-0.3007568 0.03721,-0.034107 0.0093,-0.080615 -0.0279,-0.049609 -0.09612,-0.080615 -0.06511,-0.031006 -0.133325,-0.021704 z m -0.26045,0.049609 q -0.08061,0.1302246 -0.244946,0.3658691 -0.16123,0.2356445 -0.331763,0.4247803 -0.167431,0.1891357 -0.248046,0.164331 -0.08372,-0.024805 -0.0062,-0.2294433 0.08062,-0.2077393 0.244947,-0.4526856 0.167431,-0.2480468 0.310058,-0.3689697 0.120923,-0.1023193 0.204639,-0.077515 0.08372,0.021704 0.07131,0.1736328 z m 0.570509,0.8588623 q -0.05581,0.1023193 0.0124,0.2046386 0.06511,0.1023194 0.176733,0.127124 0.108521,0.024805 0.170533,-0.077515 0.145727,-0.2356445 0.353466,-0.4960937 0.20774,-0.2604493 0.480591,-0.5736084 -0.0155,0.074414 -0.0186,0.2201416 0,0.040308 0,0.062012 -0.0031,0.1612305 0.07441,0.254248 0.08062,0.089917 0.195337,0.1085205 0.117822,0.018603 0.217041,-0.018604 0.186035,-0.068213 0.337964,-0.2046387 0.155029,-0.1364257 0.238745,-0.2976562 0.04651,-0.1023193 0.0093,-0.1426269 -0.03721,-0.043408 -0.09612,0.018604 -0.260449,0.3100586 -0.396875,0.3627685 -0.136425,0.05271 -0.16123,-0.1023193 -0.0217,-0.1581299 0.04961,-0.4619873 0.03101,-0.1364258 -0.03721,-0.2046387 -0.06821,-0.068213 -0.186035,-0.049609 -0.114722,0.018604 -0.207739,0.1178223 -0.111621,0.1209229 -0.294556,0.3410645 -0.124023,0.1519287 -0.189136,0.2232421 0.0124,-0.018604 0.03721,-0.055811 0.09302,-0.1302246 0.136426,-0.2449463 0.04031,-0.1085205 0,-0.2015381 -0.04031,-0.093018 -0.127124,-0.1457275 -0.08372,-0.05271 -0.16123,-0.049609 -0.07441,0.0031 -0.08992,0.068213 -0.06511,0.2573486 -0.192237,0.5488037 -0.130224,0.2883545 -0.331762,0.6697266 z m 3.268018,-0.809253 q 0.06511,-0.1550293 -0.0124,-0.3131591 -0.07441,-0.1612305 -0.248047,-0.2263428 -0.173633,-0.065112 -0.381372,0.024805 -0.164331,0.074414 -0.36897,0.2945556 -0.204639,0.2201416 -0.347266,0.486792 -0.145727,0.2635498 -0.145727,0.4681885 0,0.1953369 0.145727,0.3255615 0.145728,0.127124 0.372071,0.1550293 0.229443,0.027905 0.452685,-0.058911 0.356568,-0.1395264 0.567407,-0.3782715 0.21084,-0.2418457 0.390674,-0.6015137 0.02481,-0.05271 -0.0031,-0.089917 -0.02481,-0.037207 -0.07131,-0.037207 -0.04651,-0.0031 -0.06821,0.037207 -0.10542,0.1860352 -0.294555,0.3689698 -0.189136,0.1829345 -0.396875,0.3131591 -0.20774,0.1271241 -0.378272,0.1705323 -0.170532,0.043408 -0.248047,-0.034107 -0.07441,-0.077515 -0.0124,-0.2883545 0.117822,0.1271241 0.337964,0.040308 0.223242,-0.089917 0.427881,-0.2883544 0.207739,-0.2015381 0.282153,-0.3689698 z m -0.42168,-0.2046386 q 0.136426,-0.1023194 0.164331,-0.05271 0.03101,0.046509 -0.05581,0.1860352 -0.08372,0.1395263 -0.254248,0.2821533 -0.170532,0.1395263 -0.384473,0.2139404 0.02791,-0.05581 0.226343,-0.3038574 0.201538,-0.2480469 0.303857,-0.3255615 z m 3.212207,0.2046386 q 0.06511,-0.1550293 -0.0124,-0.3131591 -0.07441,-0.1612305 -0.248047,-0.2263428 -0.173633,-0.065112 -0.381372,0.024805 -0.164331,0.074414 -0.36897,0.2945556 -0.204638,0.2201416 -0.347265,0.486792 -0.145728,0.2635498 -0.145728,0.4681885 0,0.1953369 0.145728,0.3255615 0.145727,0.127124 0.37207,0.1550293 0.229443,0.027905 0.452686,-0.058911 0.356567,-0.1395264 0.567407,-0.3782715 0.21084,-0.2418457 0.390674,-0.6015137 0.0248,-0.05271 -0.0031,-0.089917 -0.02481,-0.037207 -0.07131,-0.037207 -0.04651,-0.0031 -0.06821,0.037207 -0.10542,0.1860352 -0.294556,0.3689698 -0.189136,0.1829345 -0.396875,0.3131591 -0.207739,0.1271241 -0.378271,0.1705323 -0.170533,0.043408 -0.248047,-0.034107 -0.07441,-0.077515 -0.0124,-0.2883545 0.117823,0.1271241 0.337964,0.040308 0.223242,-0.089917 0.427881,-0.2883544 0.207739,-0.2015381 0.282153,-0.3689698 z M 21.002186,2.5425883 q 0.136425,-0.1023194 0.164331,-0.05271 0.03101,0.046509 -0.05581,0.1860352 -0.08372,0.1395263 -0.254248,0.2821533 -0.170532,0.1395263 -0.384473,0.2139404 0.02791,-0.05581 0.226343,-0.3038574 0.201538,-0.2480469 0.303858,-0.3255615 z m 0.406175,1.1162109 q -0.04961,0.1364258 0.02481,0.2325439 0.07441,0.096118 0.207739,0.10542 0.133325,0.0062 0.235644,-0.093018 0.15813,-0.1519287 0.254248,-0.2573487 0.09612,-0.1054199 0.220142,-0.254248 0.03411,-0.043408 0.05271,-0.065112 0.238745,-0.0031 0.511597,-0.1519287 0.272851,-0.1488281 0.399975,-0.359668 0.04651,-0.099219 -0.0031,-0.1426269 -0.04961,-0.043408 -0.111621,0.027905 -0.07131,0.099219 -0.257349,0.2077392 -0.186035,0.1085205 -0.31936,0.1209229 0.142627,-0.2170411 0.186035,-0.4030762 0.04651,-0.1891357 -0.0217,-0.2418457 -0.06821,-0.055811 -0.192237,0.015503 -0.120923,0.068213 -0.229443,0.2449463 -0.10542,0.1767334 -0.136426,0.4216797 -0.08372,0.1426269 -0.167431,0.2356445 -0.08372,0.089917 -0.189136,0.1860352 -0.04651,0.040308 -0.06511,0.058911 0.220142,-0.5891113 0.251148,-0.9487793 0.0155,-0.1457275 -0.06201,-0.2108398 -0.07751,-0.068213 -0.192236,-0.065112 -0.111621,0.0031 -0.182935,0.055811 -0.07441,0.05271 -0.03721,0.1116211 0.05271,0.1178223 0,0.4836914 -0.05581,0.3627686 -0.176733,0.6852295 z m 2.889747,-0.9115723 q 0.06511,-0.1550293 -0.0124,-0.3131591 -0.07441,-0.1612305 -0.248047,-0.2263428 -0.173633,-0.065112 -0.381372,0.024805 -0.164331,0.074414 -0.36897,0.2945556 -0.204639,0.2201416 -0.347266,0.486792 -0.145727,0.2635498 -0.145727,0.4681885 0,0.1953369 0.145727,0.3255615 0.145728,0.127124 0.372071,0.1550293 0.229443,0.027905 0.452685,-0.058911 0.356568,-0.1395264 0.567408,-0.3782715 0.210839,-0.2418457 0.390673,-0.6015137 0.02481,-0.05271 -0.0031,-0.089917 -0.02481,-0.037207 -0.07131,-0.037207 -0.04651,-0.0031 -0.06821,0.037207 -0.105419,0.1860352 -0.294555,0.3689698 -0.189136,0.1829345 -0.396875,0.3131591 -0.207739,0.1271241 -0.378272,0.1705323 -0.170532,0.043408 -0.248047,-0.034107 -0.07441,-0.077515 -0.0124,-0.2883545 0.117822,0.1271241 0.337964,0.040308 0.223242,-0.089917 0.427881,-0.2883544 0.207739,-0.2015381 0.282153,-0.3689698 z m -0.42168,-0.2046386 q 0.136426,-0.1023194 0.164331,-0.05271 0.03101,0.046509 -0.05581,0.1860352 -0.08372,0.1395263 -0.254248,0.2821533 -0.170532,0.1395263 -0.384473,0.2139404 0.02791,-0.05581 0.226343,-0.3038574 0.201538,-0.2480469 0.303857,-0.3255615 z m 1.457276,0.9053711 q -0.05581,0.2418457 0.06201,0.3689697 0.117822,0.1240234 0.306958,0.1054199 0.189136,-0.018604 0.334863,-0.1674316 0.192237,-0.1984375 0.337964,-0.449585 0.145728,-0.254248 0.223242,-0.4402832 0.02481,-0.062012 0,-0.096118 -0.0217,-0.034106 -0.06821,-0.021704 -0.04341,0.0093 -0.06821,0.058911 Q 26.3693,3.001475 26.170862,3.2495219 25.975525,3.4944681 25.8391,3.578184 25.721277,3.649497 25.73678,3.519273 q 0.0155,-0.1023193 0.139527,-0.4433838 0.07441,-0.2046386 0.09302,-0.2728515 0.04651,-0.1829346 -0.04651,-0.3131592 -0.08992,-0.1333252 -0.254249,-0.1519287 -0.164331,-0.021704 -0.310058,0.096118 -0.102319,0.080615 -0.195337,0.1984375 -0.09302,0.1147216 -0.207739,0.2821533 -0.117823,0.1674316 -0.15813,0.2046386 0.124023,-0.1860351 0.251147,-0.4464843 0.04031,-0.086816 0.0062,-0.1891358 -0.03411,-0.1054199 -0.111621,-0.1798339 -0.07441,-0.077515 -0.145727,-0.083716 -0.07131,-0.0062 -0.09922,0.080615 -0.08062,0.254248 -0.170532,0.4743896 -0.08992,0.217041 -0.223242,0.5053955 -0.108521,0.2356445 -0.15813,0.3503662 -0.02481,0.058911 0.03411,0.1364258 0.05891,0.077515 0.145728,0.1116211 0.08682,0.031006 0.136426,-0.018604 0.08371,-0.083716 0.412377,-0.4960938 0.232544,-0.2883545 0.36897,-0.4526855 0.139527,-0.1643311 0.207739,-0.217041 0.08682,-0.068213 0.09612,-0.012402 0.0124,0.055811 -0.0124,0.1457276 -0.0124,0.037207 -0.05581,0.1581299 -0.114722,0.3317626 -0.145728,0.4619873 z M 27.789367,1.556602 q 0.130224,-0.142627 0.226343,-0.2294434 0.06511,-0.058911 0.06511,-0.2356445 0.0031,-0.17053224 -0.08372,-0.26354982 -0.08372,-0.089917 -0.244946,0.0434082 -0.21084,0.17673342 -0.586011,0.68522952 -0.920874,0.065112 -1.255737,0.1736328 -0.10542,0.037207 -0.10542,0.1302246 0,0.093018 0.07441,0.1674316 0.07131,0.074414 0.139526,0.055811 0.319361,-0.1023194 0.927075,-0.1767334 -0.251147,0.3658691 -0.443383,0.7255371 h 0.0031 q -0.257348,0.4836914 -0.362768,0.8371582 -0.06511,0.2325439 0.03721,0.4092773 0.10852,0.1736328 0.322461,0.2015381 0.207739,0.031006 0.440283,-0.1302246 0.217041,-0.1550293 0.418579,-0.4309815 0.21084,-0.2883545 0.42478,-0.6604248 0.03721,-0.089917 -0.0217,-0.1302246 -0.05891,-0.040308 -0.120923,0.034107 -0.120923,0.1767334 -0.440283,0.5084961 -0.31626,0.3286621 -0.520898,0.4526855 -0.21084,0.1302246 -0.10232,-0.1829346 0.136426,-0.396875 0.443384,-0.9084716 h 0.0031 q 0.316259,-0.5053955 0.539502,-0.7906494 0.449585,-0.055811 0.837158,0.031006 0.145727,0.021704 0.09302,-0.074414 -0.08062,-0.1116211 -0.272851,-0.1767334 -0.186035,-0.058911 -0.434082,-0.065112 z m 0.04031,0.6852294 q -0.08992,0.083716 -0.229443,0.3162598 -0.136426,0.2294434 -0.241846,0.4991943 -0.10542,0.269751 -0.10852,0.4805908 -0.0031,0.1860352 0.07751,0.2852539 0.07751,0.096118 0.207739,0.093018 0.127124,-0.0031 0.26355,-0.1023193 0.279053,-0.2077393 0.533301,-0.6046143 -0.04031,0.1953369 0.02791,0.3441651 0.06821,0.1457275 0.204639,0.1891357 0.136426,0.043408 0.275952,-0.049609 0.161231,-0.1085205 0.390674,-0.4123779 0.229443,-0.3038574 0.31936,-0.486792 0.0217,-0.046509 -0.0062,-0.086816 -0.0248,-0.040308 -0.07131,-0.046509 -0.04651,-0.0093 -0.07441,0.031006 -0.350367,0.5084961 -0.558106,0.666626 -0.207739,0.1581298 -0.179834,-0.049609 0.03101,-0.2077393 0.313159,-0.6728272 0.05271,-0.080615 -0.0093,-0.1953369 -0.05891,-0.1147216 -0.164331,-0.1612304 -0.10232,-0.046509 -0.164332,0.043408 -0.06201,0.093018 -0.176733,0.2604492 -0.418579,0.6325195 -0.567407,0.7844482 -0.15813,0.1519287 -0.198438,0.1023194 -0.03721,-0.049609 0.05271,-0.2573487 0.04961,-0.1178222 0.133326,-0.2449463 0.08372,-0.1302246 0.223242,-0.3286621 0.0155,-0.021704 0.0248,-0.034106 0.04341,-0.065112 0,-0.1829346 -0.04341,-0.1209228 -0.133325,-0.1829345 -0.08682,-0.065112 -0.164331,0.0031 z m 2.74712,0.4061768 Q 30.579895,2.5084818 30.443469,2.3782572 30.307044,2.244932 30.105506,2.2139262 29.907068,2.1829203 29.730335,2.3193461 29.500891,2.4929789 29.324158,2.7937357 29.147425,3.091392 29.079212,3.39835 q -0.05271,0.2387451 0.05891,0.4030761 0.111621,0.1612305 0.306958,0.1674317 0.195337,0.0031 0.37207,-0.1860352 0.161231,-0.1736328 0.353467,-0.5115966 -0.0031,0.018604 -0.0155,0.077515 -0.0279,0.1178223 -0.0279,0.1488281 -0.0031,0.179834 0.117822,0.2790528 0.120923,0.099219 0.297656,0.080615 0.176734,-0.018604 0.325562,-0.1612305 0.399975,-0.381372 0.601513,-0.8433593 0.0186,-0.043408 -0.0093,-0.077515 -0.02791,-0.037207 -0.07441,-0.037207 -0.04651,-0.0031 -0.07441,0.040308 -0.291455,0.4464844 -0.641821,0.7441406 -0.15813,0.1302246 -0.151928,-0.012402 0.0062,-0.142627 0.105419,-0.3782715 0.10232,-0.2387451 0.173633,-0.3007568 0.03721,-0.034107 0.0093,-0.080615 -0.02791,-0.049609 -0.09612,-0.080615 -0.06511,-0.031006 -0.133325,-0.021704 z m -0.26045,0.049609 q -0.08061,0.1302246 -0.244946,0.3658691 -0.16123,0.2356445 -0.331763,0.4247803 -0.167431,0.1891357 -0.248046,0.164331 -0.08372,-0.024805 -0.0062,-0.2294433 0.08062,-0.2077393 0.244947,-0.4526856 0.167431,-0.2480468 0.310058,-0.3689697 0.120923,-0.1023193 0.204639,-0.077515 0.08372,0.021704 0.07131,0.1736328 z m 3.999757,-1.6867188 q 0.06511,-0.0713134 0.05891,-0.23254389 -0.0062,-0.16433105 -0.10232,-0.26044922 -0.09302,-0.0961182 -0.254248,0.037207 -0.300756,0.25734862 -0.5333,0.58911131 -0.229444,0.3317627 -0.576709,0.8960694 -0.251148,0.4092773 -0.36897,0.5860107 -0.21084,0.3131592 -0.427881,0.561206 -0.217041,0.2480469 -0.47439,0.4371826 -0.353466,0.2604493 -0.238745,-0.093018 0.127124,-0.3782715 0.412378,-0.8681641 0.288355,-0.4929931 0.629419,-0.9425781 0.344165,-0.4495849 0.63562,-0.7100342 0.06511,-0.0713134 0.05891,-0.23254393 -0.0062,-0.16433105 -0.102319,-0.26044922 -0.09302,-0.0961182 -0.254248,0.037207 -0.257349,0.21394042 -0.632519,0.74414055 -0.372071,0.5270996 -0.700733,1.1193115 -0.328662,0.5891114 -0.455786,0.9642822 -0.108521,0.3441651 0,0.539502 0.10852,0.1922363 0.362769,0.1829346 0.254248,-0.012402 0.536401,-0.2666504 0.189136,-0.1736328 0.353467,-0.3720703 -0.117823,0.3348632 -0.148828,0.5550048 -0.04961,0.3782715 0.05581,0.5829102 0.10542,0.2046387 0.443384,0.2356445 0.05581,0.0062 0.09612,-0.027905 0.04341,-0.034106 0.03721,-0.077515 -0.0062,-0.043408 -0.07441,-0.065112 -0.136426,-0.046509 -0.148828,-0.2604492 -0.0124,-0.2139404 0.08061,-0.5581055 0.21084,-0.7441406 0.68833,-1.5285888 0.47749,-0.7875488 1.044898,-1.3115479 z m -0.319363,2.8029297 q 0.244947,-0.2139404 0.548804,-0.6697266 0,0.0031 -0.0124,0.027905 -0.161231,0.3720703 -0.406177,0.8433594 -0.241846,0.4681884 -0.551904,0.8340576 -0.313159,0.3627685 -0.533301,0.1550293 -0.08372,-0.080615 -0.114722,-0.012402 -0.03101,0.065112 -0.0062,0.1488281 0.06201,0.2015381 0.207739,0.3038575 0.142627,0.1023193 0.319361,0.083716 0.173633,-0.018604 0.322461,-0.1581299 Q 34.021549,5.1315774 34.23549,4.737803 34.452531,4.3440286 34.635465,3.8882424 34.8184,3.4293557 34.939323,3.0417825 35.060245,2.6542093 35.08505,2.49918 q 0.0124,-0.068213 -0.04031,-0.1333252 -0.04961,-0.068213 -0.117822,-0.086816 -0.06821,-0.021704 -0.09922,0.034106 -0.09612,0.1674317 -0.440283,0.6201172 -0.341064,0.4495849 -0.58291,0.6728271 -0.238745,0.2232422 -0.142627,-0.127124 0.05891,-0.2201416 0.186035,-0.4154785 0.127124,-0.1953369 0.269751,-0.3720703 0.0093,-0.0093 0.0124,-0.012402 0.06201,-0.080615 0.03411,-0.2201416 -0.02481,-0.1395264 -0.10852,-0.2139405 -0.08062,-0.074414 -0.161231,0.0031 -0.127124,0.1240234 -0.313159,0.434082 -0.186035,0.306958 -0.291455,0.6418213 -0.07751,0.2604492 0.0217,0.4402832 0.09922,0.1767334 0.297656,0.1984375 0.195337,0.021704 0.387573,-0.1488281 z M 36.63844,4.009165 q 0.05581,0.4960937 -0.0217,0.8278564 -0.04961,0.1395264 -0.114722,0.1209229 -0.06511,-0.018603 -0.04651,-0.1891358 0.03411,-0.2976562 0.182935,-0.7596435 z m 0.558105,-1.0883056 q 0.254248,-0.4309815 0.483692,-0.6883301 0.05271,-0.055811 0.03411,-0.2356445 -0.02481,-0.179834 -0.10852,-0.2635498 -0.08682,-0.086817 -0.217041,0.043408 -0.269751,0.2883544 -0.604615,0.958081 -0.344165,0.6728271 -0.502294,1.1782226 -0.182935,0.6015137 -0.133326,0.9518799 0.02791,0.2232422 0.182935,0.3875732 0.151929,0.1643311 0.31626,0.1271241 0.164331,-0.031006 0.254248,-0.3286621 0.130224,-0.4681885 -0.04031,-1.1441162 0.880566,-0.269751 1.280542,-1.0945069 0.04031,-0.083716 -0.0155,-0.1364257 -0.05581,-0.049609 -0.10852,0.0031 -0.0062,0.012402 -0.03411,0.043408 -0.0062,0.012402 -0.0124,0.018604 -0.223242,0.3100586 -0.465088,0.5146972 -0.241846,0.2139405 -0.651123,0.306958 0.127124,-0.2759521 0.341064,-0.6418212 z M 39.211926,2.6480082 Q 39.215027,2.5084818 39.078601,2.3782572 38.942176,2.244932 38.740637,2.2139262 38.5422,2.1829203 38.365467,2.3193461 38.136023,2.4929789 37.95929,2.7937357 37.782556,3.091392 37.714343,3.39835 q -0.05271,0.2387451 0.05891,0.4030761 0.111621,0.1612305 0.306958,0.1674317 0.195337,0.0031 0.37207,-0.1860352 0.16123,-0.1736328 0.353467,-0.5115966 -0.0031,0.018604 -0.0155,0.077515 -0.02791,0.1178223 -0.02791,0.1488281 -0.0031,0.179834 0.117822,0.2790528 0.120923,0.099219 0.297656,0.080615 0.176733,-0.018604 0.325562,-0.1612305 0.399975,-0.381372 0.601513,-0.8433593 0.0186,-0.043408 -0.0093,-0.077515 -0.02791,-0.037207 -0.07441,-0.037207 -0.04651,-0.0031 -0.07441,0.040308 -0.291455,0.4464844 -0.641821,0.7441406 -0.15813,0.1302246 -0.151929,-0.012402 0.0062,-0.142627 0.10542,-0.3782715 0.10232,-0.2387451 0.173633,-0.3007568 0.03721,-0.034107 0.0093,-0.080615 -0.0279,-0.049609 -0.09612,-0.080615 -0.06511,-0.031006 -0.133326,-0.021704 z m -0.260449,0.049609 q -0.08061,0.1302246 -0.244946,0.3658691 -0.16123,0.2356445 -0.331763,0.4247803 -0.167431,0.1891357 -0.248047,0.164331 -0.08372,-0.024805 -0.0062,-0.2294433 0.08062,-0.2077393 0.244947,-0.4526856 0.167431,-0.2480468 0.310058,-0.3689697 0.120923,-0.1023193 0.204639,-0.077515 0.08372,0.021704 0.07131,0.1736328 z m 1.258837,0.8774658 q -0.229444,0.1612304 -0.201538,0.0093 0.02791,-0.1519287 0.186035,-0.4216797 0.16123,-0.2728515 0.251147,-0.3658691 0.05891,-0.077515 0.04961,-0.2418457 -0.0093,-0.1674316 -0.09302,-0.254248 -0.08372,-0.086816 -0.217041,0.074414 -0.164331,0.1984375 -0.37207,0.6170166 -0.21084,0.4185791 -0.186036,0.6449219 0.0186,0.164331 0.142627,0.254248 0.120923,0.086816 0.291456,0.062012 0.173632,-0.024805 0.334863,-0.1705323 0.207739,-0.1891357 0.430981,-0.486792 0.226343,-0.2976562 0.362769,-0.5333007 0.03101,-0.05271 0.0062,-0.089917 -0.0217,-0.040308 -0.07131,-0.040308 -0.04961,0 -0.08371,0.049609 -0.173633,0.2511475 -0.418579,0.5146973 -0.241846,0.2604492 -0.412378,0.3782715 z M 40.45526,1.9472758 q -0.0217,0.080615 0.0217,0.164331 0.04341,0.080615 0.114722,0.10542 0.07441,0.024805 0.127124,-0.049609 0.07751,-0.1116211 0.291455,-0.3038574 0.07441,-0.065112 0.07131,-0.1736328 0,-0.1085206 -0.05581,-0.2077393 -0.05581,-0.099219 -0.133325,-0.1302246 -0.07751,-0.034107 -0.139527,0.037207 -0.07441,0.089917 -0.170532,0.2666504 -0.09302,0.1736328 -0.127124,0.2914551 z m 0.933279,0.077515 q -0.133326,0.2108399 -0.272852,0.4650879 -0.31936,0.5736084 -0.440283,0.9797852 -0.06511,0.2325439 0.03721,0.4092773 0.10852,0.1736328 0.322461,0.2015381 0.207739,0.031006 0.440283,-0.1302246 0.217041,-0.1550293 0.418579,-0.4309815 0.21084,-0.2883545 0.42478,-0.6604248 0.03721,-0.089917 -0.0217,-0.1302246 -0.06201,-0.040308 -0.120923,0.034107 -0.120922,0.1767334 -0.440283,0.5084961 -0.31626,0.3286621 -0.520898,0.4526855 -0.21084,0.1302246 -0.10232,-0.1829346 0.09922,-0.2945556 0.288355,-0.6480224 0.189136,-0.3534668 0.465088,-0.7689453 0.03411,-0.055811 0.10542,-0.1519287 0.07131,-0.1023194 0.186035,-0.2511475 0.337964,-0.4433838 0.632519,-0.7100342 0.06821,-0.0589111 0.05891,-0.23564448 -0.0093,-0.17363281 -0.10232,-0.2635498 -0.08992,-0.0868164 -0.254248,0.0434082 -0.396875,0.3286621 -0.973584,1.25883788 -0.05891,0.093018 -0.130224,0.2108398 z m 1.351852,0.8681641 q -0.04651,0.037207 0.0093,0.099219 0.05891,0.058911 0.164331,0.071314 0.10852,0.012402 0.189136,-0.077515 0.06821,-0.074414 0.105419,-0.1984375 0.04031,-0.1271241 0.03721,-0.2263428 Q 43.239587,2.341051 43.062853,2.2325305 42.88922,2.12401 42.647374,2.1705185 q -0.241845,0.046509 -0.430981,0.2573486 -0.139526,0.1519287 -0.204639,0.3317627 -0.06821,0.1767334 -0.0217,0.3255615 0.04341,0.1457275 0.223242,0.2108398 0.08062,0.031006 0.220142,0.058911 0.130225,0.027905 0.21394,0.05271 0.117823,0.037207 0.111622,0.083716 -0.0031,0.043408 -0.09922,0.080615 -0.195337,0.077515 -0.387573,0.049609 -0.192237,-0.031006 -0.254249,-0.1674317 -0.04961,-0.1147217 -0.111621,-0.080615 -0.06201,0.034106 -0.07441,0.127124 -0.03101,0.2511475 0.09612,0.3937744 0.127125,0.142627 0.344166,0.1581299 0.220141,0.012402 0.440283,-0.093018 0.16123,-0.077515 0.272851,-0.217041 0.111621,-0.1395264 0.09922,-0.2790527 -0.0093,-0.142627 -0.192236,-0.2356445 -0.06821,-0.034107 -0.223242,-0.074414 -0.124024,-0.031006 -0.167432,-0.05271 -0.124024,-0.065112 -0.08992,-0.1891357 0.03721,-0.127124 0.173633,-0.2914551 0.114721,-0.1364258 0.21084,-0.1860351 0.09922,-0.05271 0.133325,0.0031 0.03411,0.05271 -0.0217,0.1953369 -0.02791,0.074414 -0.07751,0.1550293 -0.04651,0.077515 -0.08992,0.1054199 z m 1.485183,0.9673828 q -0.145728,0 -0.229443,-0.074414 -0.08372,-0.077515 -0.05271,-0.1860351 0.03101,-0.10542 0.15813,-0.179834 0.130224,-0.077515 0.275952,-0.077515 0.148828,0 0.229443,0.074414 0.08372,0.074414 0.04961,0.1829346 -0.03101,0.1085205 -0.158129,0.1860351 -0.124024,0.074414 -0.272852,0.074414 z m 2.505273,-0.0062 q 0.120922,0.2449463 0.511596,0.3813721 0.393775,0.1333252 0.871265,0.1581298 0.480591,0.021704 0.945679,-0.037207 0.468188,-0.062012 0.74414,-0.179834 0.437183,-0.1860367 0.613916,-0.46819 0.179834,-0.2821533 0.05581,-0.5519043 Q 50.34923,2.8867533 49.933752,2.7410258 49.750817,2.6759135 49.546179,2.6387064 49.34154,2.5983988 49.02528,2.55189 48.715222,2.5053812 48.516784,2.4681742 48.318347,2.4309672 48.144714,2.3689555 47.769543,2.2325297 47.707531,2.0371928 q -0.05891,-0.1984375 0.133325,-0.449585 0.418579,-0.5457031 1.125513,-0.75654293 0.710034,-0.21394043 1.47898,-0.19223633 0.47749,0.0124024 0.604614,0.17983399 0.130224,0.16433105 -0.0124,0.40927737 -0.142627,0.2449462 -0.415478,0.471289 -0.269751,0.2232422 -0.551904,0.3565674 -0.282154,0.1302246 -0.418579,0.080615 -0.08062,-0.021704 -0.08992,0.040308 -0.0062,0.062012 0.05271,0.1209229 0.195336,0.1767334 0.47749,0.1550293 0.282153,-0.021704 0.579809,-0.217041 0.297657,-0.1984375 0.539502,-0.523999 0.272852,-0.3658692 0.269751,-0.6945313 0,-0.33176267 -0.260449,-0.54570309 -0.260449,-0.21704102 -0.731738,-0.25424805 -0.533301,-0.0434082 -1.168921,0.0775147 -0.63562,0.12092285 -1.159619,0.42167968 -0.520899,0.29765626 -0.713135,0.76274416 -0.127124,0.3162597 -0.05581,0.6201172 0.07131,0.3038574 0.393775,0.4805908 0.217041,0.1209229 0.517798,0.1922362 0.303857,0.071314 0.781347,0.1519288 0.434082,0.074414 0.623218,0.1178222 0.192236,0.046509 0.285254,0.1333252 0.09302,0.083716 0.07441,0.1891357 -0.0186,0.1023194 -0.151929,0.2046387 -0.130224,0.1023193 -0.368969,0.1829346 -0.319361,0.1054199 -0.759644,0.1488281 -0.440283,0.040308 -0.858862,0.0062 -0.418579,-0.037207 -0.719336,-0.1581299 -0.260449,-0.1085205 -0.266651,-0.2449463 -0.0031,-0.1364258 0.164332,-0.2387451 0.170532,-0.1054199 0.368969,-0.1178223 0.08372,-0.0062 0.08992,-0.05271 0.0093,-0.046509 -0.05891,-0.077515 -0.285254,-0.1116211 -0.505395,0.021704 -0.217041,0.1333252 -0.291455,0.3689697 -0.07441,0.2356446 0.0217,0.4464844 z m 4.731495,-1.6216064 q -0.176733,0.127124 -0.368969,0.396875 -0.189136,0.2697509 -0.294556,0.5705078 -0.10542,0.3007568 -0.05271,0.5177978 0.06201,0.2232422 0.260449,0.3007569 0.198438,0.074414 0.446485,-0.086816 0.217041,-0.142627 0.365869,-0.3999756 0.148828,-0.2604492 0.15813,-0.4929932 0.217041,0.1829346 0.437182,0.071314 0.220142,-0.1116211 0.384473,-0.3689697 0.03721,-0.071314 0.0031,-0.1240235 -0.03411,-0.05271 -0.10542,0 -0.279052,0.2480469 -0.499194,0.2046387 -0.220141,-0.046509 -0.350366,-0.3503662 0.08372,-0.065112 0.03411,-0.1519287 -0.04961,-0.089917 -0.176733,-0.127124 -0.127124,-0.040308 -0.241846,0.040308 z m 0.167432,0.4216797 q 0.08682,0.1736328 0.0093,0.4464843 -0.07752,0.2728516 -0.213941,0.4247803 -0.07131,0.080615 -0.148828,0.1147217 -0.07752,0.034106 -0.117822,0.0031 -0.04031,-0.034107 -0.0124,-0.1395264 0.04961,-0.1705322 0.170532,-0.4030762 0.124023,-0.2356445 0.313159,-0.4464837 z m 0.762742,1.354956 q 0.05581,0.4960937 -0.0217,0.8278564 -0.04961,0.1395264 -0.114722,0.1209229 -0.06511,-0.018603 -0.04651,-0.1891358 0.03411,-0.2976562 0.182935,-0.7596435 z m 0.558105,-1.0883056 q 0.254248,-0.4309815 0.483692,-0.6883301 0.05271,-0.055811 0.03411,-0.2356445 -0.02481,-0.179834 -0.10852,-0.2635498 -0.08682,-0.086817 -0.217041,0.043408 -0.269751,0.2883544 -0.604615,0.958081 -0.344165,0.6728271 -0.502295,1.1782226 -0.182934,0.6015137 -0.133325,0.9518799 0.02791,0.2232422 0.182935,0.3875732 0.151928,0.1643311 0.31626,0.1271241 0.164331,-0.031006 0.254248,-0.3286621 0.130224,-0.4681885 -0.04031,-1.1441162 0.880566,-0.269751 1.280542,-1.0945069 0.04031,-0.083716 -0.0155,-0.1364257 -0.05581,-0.049609 -0.10852,0.0031 -0.0062,0.012402 -0.03411,0.043408 -0.0062,0.012402 -0.0124,0.018604 -0.223242,0.3100586 -0.465088,0.5146972 -0.241846,0.2139405 -0.651123,0.306958 0.127124,-0.2759521 0.341064,-0.6418212 z m 2.15491,-1.3642578 q 0.130224,-0.142627 0.226343,-0.2294434 0.06511,-0.058911 0.06511,-0.2356445 0.0031,-0.17053224 -0.08372,-0.26354982 -0.08372,-0.089917 -0.244946,0.0434082 -0.21084,0.17673342 -0.586011,0.68522952 -0.920874,0.065112 -1.255737,0.1736328 -0.10542,0.037207 -0.10542,0.1302246 0,0.093018 0.07441,0.1674316 0.07131,0.074414 0.139526,0.055811 0.319361,-0.1023194 0.927075,-0.1767334 -0.251147,0.3658691 -0.443383,0.7255371 h 0.0031 Q 53.56453,3.1161987 53.45911,3.4696655 53.394,3.7022094 53.49632,3.8789428 q 0.10852,0.1736328 0.322461,0.2015381 0.207739,0.031006 0.440283,-0.1302246 0.217041,-0.1550293 0.418579,-0.4309815 0.21084,-0.2883545 0.42478,-0.6604248 0.03721,-0.089917 -0.0217,-0.1302246 -0.05891,-0.040308 -0.120923,0.034107 -0.120923,0.1767334 -0.440283,0.5084961 -0.31626,0.3286621 -0.520898,0.4526855 -0.21084,0.1302246 -0.10232,-0.1829346 0.136426,-0.396875 0.443384,-0.9084716 h 0.0031 q 0.316259,-0.5053955 0.539502,-0.7906494 0.449585,-0.055811 0.837158,0.031006 0.145727,0.021704 0.09302,-0.074414 Q 55.731843,1.6868293 55.539612,1.621717 55.353577,1.562806 55.10553,1.556605 Z m 1.190622,1.3828613 q -0.04651,0.1333252 -0.164331,0.3720703 -0.114722,0.2387451 -0.201538,0.3286621 -0.05891,0.062012 -0.10232,0.031006 -0.04031,-0.031006 0,-0.2046386 0.03411,-0.1457276 0.09612,-0.3193604 0.06201,-0.1736328 0.111621,-0.269751 0.03721,-0.071313 -0.03411,-0.1426269 -0.06821,-0.071314 -0.170532,-0.089917 -0.10232,-0.021704 -0.142627,0.040308 -0.06511,0.099219 -0.179834,0.2883545 -0.114722,0.1953369 -0.201538,0.3162598 -0.08372,0.1209228 -0.198438,0.2356445 -0.155029,0.1519287 -0.182934,0.1023193 -0.02481,-0.049609 0.05271,-0.2294433 0.08062,-0.1829346 0.217041,-0.3937744 0.136425,-0.2139405 0.26665,-0.3472657 0.04961,-0.05271 0.03721,-0.1488281 -0.0124,-0.099219 -0.07131,-0.1860351 -0.05891,-0.086816 -0.136426,-0.1116211 -0.07751,-0.027905 -0.145728,0.046509 -0.148828,0.1612304 -0.31936,0.4774902 -0.173633,0.3131592 -0.241846,0.6263183 -0.07131,0.3100586 0.05581,0.4805909 0.06511,0.086816 0.170532,0.093017 0.102319,0.0031 0.217041,-0.05271 0.145728,-0.068213 0.282153,-0.2108399 0.136426,-0.1426269 0.238745,-0.3007568 -0.0248,0.089917 -0.0186,0.2325439 0.0062,0.142627 0.06821,0.2542481 0.06511,0.1116211 0.195337,0.1209228 0.269751,0.015503 0.449585,-0.2263427 0.179834,-0.2449463 0.294555,-0.5208985 0.0155,-0.037207 0.0186,-0.040308 0.120923,0.068213 0.272851,0.031006 0.151929,-0.040308 0.288355,-0.1674317 0.136426,-0.127124 0.220142,-0.3100585 0.0248,-0.058911 0,-0.10542 -0.0217,-0.049609 -0.06511,-0.05271 -0.04031,-0.0031 -0.06201,0.046509 -0.04341,0.099219 -0.204639,0.2046386 -0.161231,0.1023194 -0.282153,0.055811 0.07751,-0.1643311 0.08682,-0.3348633 0.0093,-0.1953369 -0.07441,-0.2728516 -0.08061,-0.080615 -0.189136,-0.027905 -0.10852,0.05271 -0.173633,0.2108398 -0.04651,0.1085205 -0.06511,0.2387451 -0.0186,0.1302246 -0.0124,0.232544 z M 58.323937,2.6480082 Q 58.327038,2.5084818 58.190612,2.3782572 58.054186,2.244932 57.852648,2.2139262 57.654211,2.1829203 57.477477,2.3193461 57.248034,2.4929789 57.071301,2.7937357 56.894567,3.091392 56.826354,3.39835 q -0.05271,0.2387451 0.05891,0.4030761 0.111621,0.1612305 0.306958,0.1674317 0.195336,0.0031 0.37207,-0.1860352 0.16123,-0.1736328 0.353467,-0.5115966 -0.0031,0.018604 -0.0155,0.077515 -0.02791,0.1178223 -0.02791,0.1488281 -0.0031,0.179834 0.117823,0.2790528 0.120923,0.099219 0.297656,0.080615 0.176733,-0.018604 0.325562,-0.1612305 0.399975,-0.381372 0.601513,-0.8433593 0.0186,-0.043408 -0.0093,-0.077515 -0.02791,-0.037207 -0.07441,-0.037207 -0.04651,-0.0031 -0.07441,0.040308 -0.291455,0.4464844 -0.641821,0.7441406 -0.15813,0.1302246 -0.151929,-0.012402 0.0062,-0.142627 0.10542,-0.3782715 0.10232,-0.2387451 0.173633,-0.3007568 0.03721,-0.034107 0.0093,-0.080615 -0.02791,-0.049609 -0.09612,-0.080615 -0.06511,-0.031006 -0.133326,-0.021704 z m -0.260449,0.049609 q -0.08062,0.1302246 -0.244946,0.3658691 -0.161231,0.2356445 -0.331763,0.4247803 -0.167431,0.1891357 -0.248047,0.164331 -0.08371,-0.024805 -0.0062,-0.2294433 0.08062,-0.2077393 0.244946,-0.4526856 0.167432,-0.2480468 0.310059,-0.3689697 0.120923,-0.1023193 0.204639,-0.077515 0.08372,0.021704 0.07131,0.1736328 z m 0.570507,0.8588623 q -0.05581,0.1023193 0.0124,0.2046386 0.06511,0.1023194 0.176733,0.127124 0.108521,0.024805 0.170532,-0.077515 0.145728,-0.2356445 0.353467,-0.4960937 0.20774,-0.2604493 0.480591,-0.5736084 -0.0155,0.074414 -0.0186,0.2201416 0,0.040308 0,0.062012 -0.0031,0.1612305 0.07441,0.254248 0.08062,0.089917 0.195337,0.1085205 0.117822,0.018603 0.217041,-0.018604 0.186035,-0.068213 0.337963,-0.2046387 0.15503,-0.1364257 0.238746,-0.2976562 0.04651,-0.1023193 0.0093,-0.1426269 -0.03721,-0.043408 -0.09612,0.018604 -0.260449,0.3100586 -0.396875,0.3627685 -0.136426,0.05271 -0.16123,-0.1023193 -0.0217,-0.1581299 0.04961,-0.4619873 0.03101,-0.1364258 -0.03721,-0.2046387 -0.06821,-0.068213 -0.186035,-0.049609 -0.114722,0.018604 -0.207739,0.1178223 -0.111621,0.1209229 -0.294556,0.3410645 -0.124023,0.1519287 -0.189136,0.2232421 0.0124,-0.018604 0.03721,-0.055811 0.09302,-0.1302246 0.136426,-0.2449463 0.04031,-0.1085205 0,-0.2015381 -0.04031,-0.093018 -0.127124,-0.1457275 -0.08372,-0.05271 -0.16123,-0.049609 -0.07442,0.0031 -0.08992,0.068213 -0.06511,0.2573486 -0.192237,0.5488037 -0.130224,0.2883545 -0.331762,0.6697266 z m 3.268018,-0.809253 q 0.06511,-0.1550293 -0.0124,-0.3131591 -0.07441,-0.1612305 -0.248046,-0.2263428 -0.173633,-0.065112 -0.381372,0.024805 -0.164331,0.074414 -0.36897,0.2945556 -0.204639,0.2201416 -0.347266,0.486792 -0.145727,0.2635498 -0.145727,0.4681885 0,0.1953369 0.145727,0.3255615 0.145728,0.127124 0.372071,0.1550293 0.229443,0.027905 0.452685,-0.058911 0.356567,-0.1395264 0.567407,-0.3782715 0.21084,-0.2418457 0.390674,-0.6015137 0.02481,-0.05271 -0.0031,-0.089917 -0.02481,-0.037207 -0.07131,-0.037207 -0.04651,-0.0031 -0.06821,0.037207 -0.10542,0.1860352 -0.294556,0.3689698 -0.189135,0.1829345 -0.396874,0.3131591 -0.20774,0.1271241 -0.378272,0.1705323 -0.170532,0.043408 -0.248047,-0.034107 -0.07441,-0.077515 -0.0124,-0.2883545 0.117822,0.1271241 0.337964,0.040308 0.223242,-0.089917 0.427881,-0.2883544 0.207739,-0.2015381 0.282153,-0.3689698 z m -0.42168,-0.2046386 q 0.136426,-0.1023194 0.164331,-0.05271 0.03101,0.046509 -0.05581,0.1860352 -0.08372,0.1395263 -0.254248,0.2821533 -0.170533,0.1395263 -0.384473,0.2139404 0.0279,-0.05581 0.226343,-0.3038574 0.201538,-0.2480469 0.303857,-0.3255615 z m 3.212207,0.2046386 q 0.06511,-0.1550293 -0.0124,-0.3131591 -0.07441,-0.1612305 -0.248047,-0.2263428 -0.173633,-0.065112 -0.381372,0.024805 -0.164331,0.074414 -0.36897,0.2945556 -0.204638,0.2201416 -0.347265,0.486792 -0.145728,0.2635498 -0.145728,0.4681885 0,0.1953369 0.145728,0.3255615 0.145727,0.127124 0.37207,0.1550293 0.229443,0.027905 0.452685,-0.058911 0.356568,-0.1395264 0.567408,-0.3782715 0.210839,-0.2418457 0.390673,-0.6015137 0.0248,-0.05271 -0.0031,-0.089917 -0.02481,-0.037207 -0.07131,-0.037207 -0.04651,-0.0031 -0.06821,0.037207 -0.10542,0.1860352 -0.294556,0.3689698 -0.189136,0.1829345 -0.396875,0.3131591 -0.207739,0.1271241 -0.378272,0.1705323 -0.170532,0.043408 -0.248047,-0.034107 -0.07441,-0.077515 -0.0124,-0.2883545 0.117822,0.1271241 0.337964,0.040308 0.223242,-0.089917 0.427881,-0.2883544 0.207739,-0.2015381 0.282153,-0.3689698 z M 64.270861,2.5425883 q 0.136425,-0.1023194 0.164331,-0.05271 0.031,0.046509 -0.05581,0.1860352 -0.08372,0.1395263 -0.254248,0.2821533 -0.170532,0.1395263 -0.384473,0.2139404 0.02791,-0.05581 0.226343,-0.3038574 0.201538,-0.2480469 0.303858,-0.3255615 z m 0.406175,1.1162109 q -0.04961,0.1364258 0.0248,0.2325439 0.07441,0.096118 0.20774,0.10542 0.133325,0.0062 0.235644,-0.093018 0.15813,-0.1519287 0.254248,-0.2573487 0.09612,-0.1054199 0.220142,-0.254248 0.03411,-0.043408 0.05271,-0.065112 0.238745,-0.0031 0.511596,-0.1519287 0.272852,-0.1488281 0.399976,-0.359668 0.04651,-0.099219 -0.0031,-0.1426269 -0.04961,-0.043408 -0.111621,0.027905 -0.07131,0.099219 -0.257348,0.2077392 -0.186035,0.1085205 -0.319361,0.1209229 0.142627,-0.2170411 0.186036,-0.4030762 0.04651,-0.1891357 -0.0217,-0.2418457 -0.06821,-0.055811 -0.192236,0.015503 -0.120923,0.068213 -0.229443,0.2449463 -0.10542,0.1767334 -0.136426,0.4216797 -0.08372,0.1426269 -0.167432,0.2356445 -0.08371,0.089917 -0.189135,0.1860352 -0.04651,0.040308 -0.06511,0.058911 0.220142,-0.5891113 0.251148,-0.9487793 0.0155,-0.1457275 -0.06201,-0.2108398 -0.07752,-0.068213 -0.192236,-0.065112 -0.111621,0.0031 -0.182935,0.055811 -0.07441,0.05271 -0.03721,0.1116211 0.05271,0.1178223 0,0.4836914 -0.05581,0.3627686 -0.176733,0.6852295 z m 2.889749,-0.9115723 q 0.06511,-0.1550293 -0.0124,-0.3131591 -0.07442,-0.1612305 -0.248047,-0.2263428 -0.173633,-0.065112 -0.381372,0.024805 -0.164331,0.074414 -0.36897,0.2945556 -0.204639,0.2201416 -0.347266,0.486792 -0.145727,0.2635498 -0.145727,0.4681885 0,0.1953369 0.145727,0.3255615 0.145728,0.127124 0.372071,0.1550293 0.229443,0.027905 0.452685,-0.058911 0.356567,-0.1395264 0.567407,-0.3782715 0.21084,-0.2418457 0.390674,-0.6015137 0.02481,-0.05271 -0.0031,-0.089917 -0.02481,-0.037207 -0.07131,-0.037207 -0.04651,-0.0031 -0.06821,0.037207 -0.10542,0.1860352 -0.294555,0.3689698 -0.189136,0.1829345 -0.396875,0.3131591 -0.20774,0.1271241 -0.378272,0.1705323 -0.170532,0.043408 -0.248047,-0.034107 -0.07441,-0.077515 -0.0124,-0.2883545 0.117822,0.1271241 0.337964,0.040308 0.223242,-0.089917 0.427881,-0.2883544 0.207739,-0.2015381 0.282153,-0.3689698 z m -0.42168,-0.2046386 q 0.136426,-0.1023194 0.164331,-0.05271 0.03101,0.046509 -0.05581,0.1860352 -0.08372,0.1395263 -0.254248,0.2821533 -0.170533,0.1395263 -0.384473,0.2139404 0.02791,-0.05581 0.226343,-0.3038574 0.201538,-0.2480469 0.303857,-0.3255615 z m 1.457274,0.9053711 q -0.05581,0.2418457 0.06201,0.3689697 0.117822,0.1240234 0.306958,0.1054199 0.189136,-0.018604 0.334863,-0.1674316 0.192236,-0.1984375 0.337964,-0.449585 0.145727,-0.254248 0.223242,-0.4402832 0.02481,-0.062012 0,-0.096118 -0.0217,-0.034106 -0.06821,-0.021704 -0.04341,0.0093 -0.06821,0.058911 -0.09302,0.1953369 -0.291455,0.4433838 -0.195337,0.2449462 -0.331762,0.3286621 -0.117823,0.071313 -0.10232,-0.058911 0.0155,-0.1023193 0.139527,-0.4433838 0.07441,-0.2046386 0.09302,-0.2728515 0.04651,-0.1829346 -0.04651,-0.3131592 -0.08992,-0.1333252 -0.254248,-0.1519287 -0.164331,-0.021704 -0.310058,0.096118 -0.10232,0.080615 -0.195337,0.1984375 -0.09302,0.1147216 -0.207739,0.2821533 -0.117823,0.1674316 -0.15813,0.2046386 0.124023,-0.1860351 0.251147,-0.4464843 0.04031,-0.086816 0.0062,-0.1891358 -0.03411,-0.1054199 -0.111621,-0.1798339 -0.07441,-0.077515 -0.145727,-0.083716 -0.07131,-0.0062 -0.09922,0.080615 -0.08061,0.254248 -0.170532,0.4743896 -0.08992,0.217041 -0.223242,0.5053955 -0.108521,0.2356445 -0.15813,0.3503662 -0.02481,0.058911 0.03411,0.1364258 0.05891,0.077515 0.145728,0.1116211 0.08682,0.031006 0.136425,-0.018604 0.08372,-0.083716 0.412378,-0.4960938 0.232544,-0.2883545 0.36897,-0.4526855 0.139526,-0.1643311 0.207739,-0.217041 0.08682,-0.068213 0.09612,-0.012402 0.0124,0.055811 -0.0124,0.1457276 -0.0124,0.037207 -0.05581,0.1581299 -0.114722,0.3317626 -0.145728,0.4619873 z M 71.058042,1.556602 q 0.130224,-0.142627 0.226342,-0.2294434 0.06511,-0.058911 0.06511,-0.2356445 0.0031,-0.17053224 -0.08372,-0.26354982 -0.08372,-0.089917 -0.244946,0.0434082 -0.21084,0.17673342 -0.586011,0.68522952 -0.920874,0.065112 -1.255737,0.1736328 -0.10542,0.037207 -0.10542,0.1302246 0,0.093018 0.07441,0.1674316 0.07131,0.074414 0.139526,0.055811 0.31936,-0.1023194 0.927075,-0.1767334 -0.251147,0.3658691 -0.443384,0.7255371 h 0.0031 q -0.257349,0.4836914 -0.362769,0.8371582 -0.06511,0.2325439 0.03721,0.4092773 0.10852,0.1736328 0.32246,0.2015381 0.20774,0.031006 0.440284,-0.1302246 0.217041,-0.1550293 0.418579,-0.4309815 0.21084,-0.2883545 0.42478,-0.6604248 0.03721,-0.089917 -0.0217,-0.1302246 -0.05891,-0.040308 -0.120923,0.034107 -0.120923,0.1767334 -0.440283,0.5084961 -0.31626,0.3286621 -0.520899,0.4526855 -0.210839,0.1302246 -0.102319,-0.1829346 0.136426,-0.396875 0.443384,-0.9084716 h 0.0031 q 0.31626,-0.5053955 0.539502,-0.7906494 0.449585,-0.055811 0.837159,0.031006 0.145727,0.021704 0.09302,-0.074414 Q 71.68436,1.6868266 71.492124,1.6217143 71.306088,1.5628031 71.058042,1.556602 Z m 0.04031,0.6852294 q -0.08992,0.083716 -0.229444,0.3162598 -0.136425,0.2294434 -0.241845,0.4991943 -0.10542,0.269751 -0.108521,0.4805908 -0.0031,0.1860352 0.07751,0.2852539 0.07752,0.096118 0.207739,0.093018 0.127124,-0.0031 0.26355,-0.1023193 0.279053,-0.2077393 0.533301,-0.6046143 -0.04031,0.1953369 0.0279,0.3441651 0.06821,0.1457275 0.204639,0.1891357 0.136425,0.043408 0.275952,-0.049609 0.16123,-0.1085205 0.390674,-0.4123779 0.229443,-0.3038574 0.31936,-0.486792 0.0217,-0.046509 -0.0062,-0.086816 -0.02481,-0.040308 -0.07131,-0.046509 -0.04651,-0.0093 -0.07441,0.031006 -0.350366,0.5084961 -0.558105,0.666626 -0.207739,0.1581298 -0.179834,-0.049609 0.03101,-0.2077393 0.313159,-0.6728272 0.05271,-0.080615 -0.0093,-0.1953369 -0.05891,-0.1147216 -0.164331,-0.1612304 -0.102319,-0.046509 -0.164331,0.043408 -0.06201,0.093018 -0.176733,0.2604492 -0.418579,0.6325195 -0.567407,0.7844482 -0.15813,0.1519287 -0.198438,0.1023194 -0.03721,-0.049609 0.05271,-0.2573487 0.04961,-0.1178222 0.133325,-0.2449463 0.08372,-0.1302246 0.223242,-0.3286621 0.0155,-0.021704 0.02481,-0.034106 0.04341,-0.065112 0,-0.1829346 -0.04341,-0.1209228 -0.133325,-0.1829345 -0.08682,-0.065112 -0.164331,0.0031 z m 2.747117,0.4061768 Q 73.848572,2.5084818 73.712146,2.3782572 73.57572,2.244932 73.374182,2.2139262 73.175745,2.1829203 72.999011,2.3193461 72.769568,2.4929789 72.592835,2.7937357 72.416101,3.091392 72.347888,3.39835 q -0.05271,0.2387451 0.05891,0.4030761 0.111621,0.1612305 0.306958,0.1674317 0.195336,0.0031 0.37207,-0.1860352 0.16123,-0.1736328 0.353467,-0.5115966 -0.0031,0.018604 -0.0155,0.077515 -0.02791,0.1178223 -0.02791,0.1488281 -0.0031,0.179834 0.117823,0.2790528 0.120923,0.099219 0.297656,0.080615 0.176733,-0.018604 0.325561,-0.1612305 0.399976,-0.381372 0.601514,-0.8433593 0.0186,-0.043408 -0.0093,-0.077515 -0.02791,-0.037207 -0.07441,-0.037207 -0.04651,-0.0031 -0.07441,0.040308 -0.291455,0.4464844 -0.641821,0.7441406 -0.15813,0.1302246 -0.151929,-0.012402 0.0062,-0.142627 0.10542,-0.3782715 0.10232,-0.2387451 0.173633,-0.3007568 0.03721,-0.034107 0.0093,-0.080615 -0.02791,-0.049609 -0.09612,-0.080615 -0.06511,-0.031006 -0.133326,-0.021704 z m -0.260449,0.049609 q -0.08061,0.1302246 -0.244946,0.3658691 -0.161231,0.2356445 -0.331763,0.4247803 -0.167431,0.1891357 -0.248047,0.164331 -0.08371,-0.024805 -0.0062,-0.2294433 0.08062,-0.2077393 0.244946,-0.4526856 0.167432,-0.2480468 0.310059,-0.3689697 0.120923,-0.1023193 0.204639,-0.077515 0.08372,0.021704 0.07131,0.1736328 z m 3.999754,-1.6867188 q 0.06511,-0.0713134 0.05891,-0.23254389 -0.0062,-0.16433105 -0.10232,-0.26044922 -0.09302,-0.0961182 -0.254248,0.037207 Q 76.986363,0.81246135 76.753819,1.144224 76.524376,1.4759867 76.17711,2.0402934 75.925963,2.4495707 75.808141,2.6263041 75.597301,2.9394633 75.38026,3.1875101 75.163219,3.435557 74.90587,3.6246927 74.552403,3.885142 74.667125,3.5316752 74.794249,3.1534037 75.079503,2.6635111 75.367858,2.170518 75.708922,1.720933 q 0.344165,-0.4495849 0.63562,-0.7100342 0.06511,-0.0713134 0.05891,-0.23254389 -0.0062,-0.16433105 -0.102319,-0.26044922 -0.09302,-0.0961182 -0.254248,0.037207 -0.257349,0.21394042 -0.63252,0.74414061 -0.37207,0.5270996 -0.700732,1.1193115 -0.328662,0.5891114 -0.455786,0.9642822 -0.108521,0.3441651 0,0.539502 0.10852,0.1922363 0.362768,0.1829346 0.254248,-0.012402 0.536402,-0.2666504 0.189135,-0.1736328 0.353467,-0.3720703 -0.117823,0.3348632 -0.148829,0.5550048 -0.04961,0.3782715 0.05581,0.5829102 0.10542,0.2046387 0.443384,0.2356445 0.05581,0.0062 0.09612,-0.027905 0.04341,-0.034106 0.03721,-0.077515 -0.0062,-0.043408 -0.07441,-0.065112 -0.136426,-0.046509 -0.148828,-0.2604492 -0.0124,-0.2139404 0.08062,-0.5581055 0.21084,-0.7441406 0.68833,-1.5285888 0.47749,-0.7875488 1.044897,-1.3115479 z m -0.31936,2.8029297 q 0.244946,-0.2139404 0.548804,-0.6697266 0,0.0031 -0.0124,0.027905 -0.161231,0.3720703 -0.406177,0.8433594 -0.241846,0.4681884 -0.551905,0.8340576 -0.313159,0.3627685 -0.5333,0.1550293 -0.08372,-0.080615 -0.114722,-0.012402 -0.03101,0.065112 -0.0062,0.1488281 0.06201,0.2015381 0.207739,0.3038575 0.142627,0.1023193 0.31936,0.083716 0.173633,-0.018604 0.322461,-0.1581299 0.251148,-0.2387451 0.465088,-0.6325195 0.217041,-0.3937744 0.399976,-0.8495606 0.182934,-0.4588867 0.303857,-0.8464599 0.120923,-0.3875732 0.145728,-0.5426025 0.0124,-0.068213 -0.04031,-0.1333252 -0.04961,-0.068213 -0.117822,-0.086816 -0.06821,-0.021704 -0.09922,0.034106 -0.09612,0.1674317 -0.440283,0.6201172 -0.341064,0.4495849 -0.58291,0.6728271 -0.238745,0.2232422 -0.142627,-0.127124 0.05891,-0.2201416 0.186035,-0.4154785 0.127124,-0.1953369 0.269751,-0.3720703 0.0093,-0.0093 0.0124,-0.012402 0.06201,-0.080615 0.03411,-0.2201416 -0.02481,-0.1395264 -0.108521,-0.2139405 -0.08061,-0.074414 -0.16123,0.0031 -0.127124,0.1240234 -0.313159,0.434082 -0.186035,0.306958 -0.291455,0.6418213 -0.07751,0.2604492 0.0217,0.4402832 0.09922,0.1767334 0.297656,0.1984375 0.195337,0.021704 0.387573,-0.1488281 z M 81.56593,2.9394629 q -0.04651,0.1333252 -0.164331,0.3720703 -0.114722,0.2387451 -0.201538,0.3286621 -0.05891,0.062012 -0.10232,0.031006 -0.04031,-0.031006 0,-0.2046386 0.03411,-0.1457276 0.09612,-0.3193604 0.06201,-0.1736328 0.111621,-0.269751 0.03721,-0.071313 -0.03411,-0.1426269 -0.06821,-0.071314 -0.170532,-0.089917 -0.102319,-0.021704 -0.142627,0.040308 -0.06511,0.099219 -0.179834,0.2883545 -0.114722,0.1953369 -0.201538,0.3162598 -0.08372,0.1209228 -0.198437,0.2356445 -0.15503,0.1519287 -0.182935,0.1023193 -0.02481,-0.049609 0.05271,-0.2294433 0.08062,-0.1829346 0.217041,-0.3937744 0.136426,-0.2139405 0.26665,-0.3472657 0.04961,-0.05271 0.03721,-0.1488281 -0.0124,-0.099219 -0.07131,-0.1860351 -0.05891,-0.086816 -0.136426,-0.1116211 -0.07751,-0.027905 -0.145727,0.046509 -0.148829,0.1612304 -0.319361,0.4774902 -0.173633,0.3131592 -0.241846,0.6263183 -0.07131,0.3100586 0.05581,0.4805909 0.06511,0.086816 0.170532,0.093017 0.10232,0.0031 0.217041,-0.05271 0.145728,-0.068213 0.282154,-0.2108399 0.136425,-0.1426269 0.238745,-0.3007568 -0.02481,0.089917 -0.0186,0.2325439 0.0062,0.142627 0.06821,0.2542481 0.06511,0.1116211 0.195337,0.1209228 0.269751,0.015503 0.449585,-0.2263427 0.179834,-0.2449463 0.294556,-0.5208985 0.0155,-0.037207 0.0186,-0.040308 0.120923,0.068213 0.272852,0.031006 0.151928,-0.040308 0.288354,-0.1674317 0.136426,-0.127124 0.220142,-0.3100585 0.0248,-0.058911 0,-0.10542 -0.0217,-0.049609 -0.06511,-0.05271 -0.04031,-0.0031 -0.06201,0.046509 -0.04341,0.099219 -0.204639,0.2046386 -0.16123,0.1023194 -0.282153,0.055811 0.07751,-0.1643311 0.08682,-0.3348633 0.0093,-0.1953369 -0.07441,-0.2728516 -0.08061,-0.080615 -0.189136,-0.027905 -0.10852,0.05271 -0.173632,0.2108398 -0.04651,0.1085205 -0.06511,0.2387451 -0.0186,0.1302246 -0.0124,0.232544 z m 1.221625,-0.7069336 q -0.176734,0.127124 -0.36897,0.396875 -0.189136,0.2697509 -0.294556,0.5705078 -0.10542,0.3007568 -0.05271,0.5177978 0.06201,0.2232422 0.26045,0.3007569 0.198437,0.074414 0.446484,-0.086816 0.217041,-0.142627 0.365869,-0.3999756 0.148828,-0.2604492 0.15813,-0.4929932 0.217041,0.1829346 0.437183,0.071314 0.220141,-0.1116211 0.384472,-0.3689697 0.03721,-0.071314 0.0031,-0.1240235 -0.03411,-0.05271 -0.10542,0 -0.279053,0.2480469 -0.499194,0.2046387 -0.220142,-0.046509 -0.350367,-0.3503662 0.08372,-0.065112 0.03411,-0.1519287 -0.04961,-0.089917 -0.176734,-0.127124 -0.127124,-0.040308 -0.241845,0.040308 z m 0.167431,0.4216797 q 0.08682,0.1736328 0.0093,0.4464843 -0.07752,0.2728516 -0.21394,0.4247803 -0.07131,0.080615 -0.148828,0.1147217 -0.07752,0.034106 -0.117823,0.0031 -0.04031,-0.034107 -0.0124,-0.1395264 0.04961,-0.1705322 0.170532,-0.4030762 0.124024,-0.2356445 0.313159,-0.4464837 z m 0.558107,0.9022705 q -0.05581,0.1023193 0.0124,0.2046386 0.06511,0.1023194 0.176733,0.127124 0.108521,0.024805 0.170532,-0.077515 0.145728,-0.2356445 0.353467,-0.4960937 0.207739,-0.2604493 0.480591,-0.5736084 -0.0155,0.074414 -0.0186,0.2201416 0,0.040308 0,0.062012 -0.0031,0.1612305 0.07441,0.254248 0.08062,0.089917 0.195337,0.1085205 0.117823,0.018603 0.217041,-0.018604 0.186036,-0.068213 0.337964,-0.2046387 0.15503,-0.1364257 0.238745,-0.2976562 0.04651,-0.1023193 0.0093,-0.1426269 -0.03721,-0.043408 -0.09612,0.018604 -0.260449,0.3100586 -0.396875,0.3627685 -0.136426,0.05271 -0.161231,-0.1023193 -0.0217,-0.1581299 0.04961,-0.4619873 0.03101,-0.1364258 -0.03721,-0.2046387 -0.06821,-0.068213 -0.186035,-0.049609 -0.114722,0.018604 -0.20774,0.1178223 -0.111621,0.1209229 -0.294555,0.3410645 -0.124024,0.1519287 -0.189136,0.2232421 0.0124,-0.018604 0.03721,-0.055811 0.09302,-0.1302246 0.136426,-0.2449463 0.04031,-0.1085205 0,-0.2015381 -0.04031,-0.093018 -0.127124,-0.1457275 -0.08372,-0.05271 -0.161231,-0.049609 -0.07441,0.0031 -0.08992,0.068213 -0.06511,0.2573486 -0.192236,0.5488037 -0.130225,0.2883545 -0.331763,0.6697266 z m 3.62459,-3.00136717 q -0.396875,0.3286621 -0.973584,1.25883787 -0.0217,0.034106 -0.133325,0.2077392 -0.15503,0.2387452 -0.26355,0.412378 -0.328662,0.5177978 -0.514697,1.1286132 -0.04341,0.1550293 0.08062,0.2666504 0.120923,0.1147217 0.223242,0.058911 0.0124,-0.0093 0.04031,-0.027905 0.102319,-0.077515 0.179834,-0.1333252 0.310058,-0.2294434 0.393774,-0.2852539 0.05891,0.254248 0.173633,0.3689697 0.114722,0.1116211 0.285254,0.086816 0.337964,-0.046509 0.703833,-0.3906738 0.182934,-0.1674317 0.31626,-0.3255615 0.136425,-0.1612305 0.223242,-0.3100586 0.02791,-0.058911 -0.03721,-0.1023194 -0.06201,-0.043408 -0.108521,0.015503 -0.15813,0.1922363 -0.415478,0.4309814 -0.26045,0.2418457 -0.505396,0.3131592 -0.238745,0.068213 -0.282153,-0.2852539 0.176733,-0.1178223 0.381372,-0.2914551 0.217041,-0.179834 0.26665,-0.2759521 0.06511,-0.1240235 -0.02791,-0.2449463 -0.09302,-0.1209229 -0.220142,-0.1550293 -0.127124,-0.031006 -0.133325,0.071314 -0.0093,0.1085205 -0.322461,0.434082 -0.31936,0.3379638 -0.706933,0.6108154 0.313159,-0.6325195 0.626318,-1.0914062 0.310059,-0.4433838 0.415479,-0.5798096 0.337963,-0.4433838 0.632519,-0.7100342 0.06821,-0.0589111 0.05891,-0.23564448 -0.0093,-0.17363281 -0.102319,-0.2635498 -0.08992,-0.0868164 -0.254248,0.0434082 z m 1.122409,2.33784177 q -0.04651,0.037207 0.0093,0.099219 0.05891,0.058911 0.164331,0.071314 0.10852,0.012402 0.189135,-0.077515 0.06821,-0.074414 0.10542,-0.1984375 0.04031,-0.1271241 0.03721,-0.2263428 -0.0062,-0.2201416 -0.182934,-0.3286621 -0.173633,-0.1085205 -0.415479,-0.062012 -0.241845,0.046509 -0.430981,0.2573486 -0.139526,0.1519287 -0.204639,0.3317627 -0.06821,0.1767334 -0.0217,0.3255615 0.04341,0.1457275 0.223242,0.2108398 0.08062,0.031006 0.220142,0.058911 0.130225,0.027905 0.21394,0.05271 0.117823,0.037207 0.111621,0.083716 -0.0031,0.043408 -0.09922,0.080615 -0.195337,0.077515 -0.387574,0.049609 -0.192236,-0.031006 -0.254248,-0.1674317 -0.04961,-0.1147217 -0.111621,-0.080615 -0.06201,0.034106 -0.07441,0.127124 -0.03101,0.2511475 0.09612,0.3937744 0.127124,0.142627 0.344165,0.1581299 0.220142,0.012402 0.440284,-0.093018 0.16123,-0.077515 0.272851,-0.217041 0.111621,-0.1395264 0.09922,-0.2790527 -0.0093,-0.142627 -0.192236,-0.2356445 -0.06821,-0.034107 -0.223243,-0.074414 -0.124023,-0.031006 -0.167431,-0.05271 -0.124024,-0.065112 -0.08992,-0.1891357 0.03721,-0.127124 0.173633,-0.2914551 0.114721,-0.1364258 0.210839,-0.1860351 0.09922,-0.05271 0.133326,0.0031 0.03411,0.05271 -0.0217,0.1953369 -0.02791,0.074414 -0.07752,0.1550293 -0.04651,0.077515 -0.08992,0.1054199 z m 1.485179,0.9673828 q -0.145727,0 -0.229443,-0.074414 -0.08372,-0.077515 -0.05271,-0.1860351 0.03101,-0.10542 0.15813,-0.179834 0.130224,-0.077515 0.275952,-0.077515 0.148828,0 0.229443,0.074414 0.08372,0.074414 0.04961,0.1829346 -0.031,0.1085205 -0.158129,0.1860351 -0.124024,0.074414 -0.272852,0.074414 z"
     aria-label="Hardware eventually fails. Software eventually works." />
</svg>
