<?xml version="1.0" encoding="UTF-8"?>
<svg id="Layer_1" width="512px" height="512px" enable-background="new 0 0 512 512" version="1.1" viewBox="0 0 512 512" xml:space="preserve" xmlns="http://www.w3.org/2000/svg"><path id="path2" d="m492 109.5c-17.4 7.7-36 12.9-55.6 15.3 20-12 35.4-31 42.6-53.6-18.7 11.1-39.4 19.2-61.5 23.5-17.7-18.9-42.9-30.7-70.7-30.7-53.5 0-96.8 43.4-96.8 96.9 0 7.6 0.8 15 2.5 22.1-80.5-4-151.9-42.6-199.6-101.3-8.3 14.3-13.1 31-13.1 48.7 0 33.6 17.1 63.3 43.1 80.7-15.9-0.4-30.9-4.8-43.9-12.1v1.2c0 47 33.4 86.1 77.7 95-8.1 2.2-16.7 3.4-25.5 3.4-6.2 0-12.3-0.6-18.2-1.8 12.3 38.5 48.1 66.5 90.5 67.3-33.1 26-74.9 41.5-120.3 41.5-7.8 0-15.5-0.5-23.1-1.4 42.8 27.8 93.7 43.8 148.3 43.8 178.2 0 275.6-147.7 275.6-275.8 0-4.2-0.1-8.4-0.3-12.5 18.9-13.7 35.3-30.8 48.3-50.2z" fill="#1da1f2"/></svg>
